<svg width="152" height="332" viewBox="0 0 152 332" fill="none" xmlns="http://www.w3.org/2000/svg">
<g clip-path="url(#clip0_1_656)">
<path d="M-35.6027 332C-35.6027 332 -35.6533 332 -35.666 332C-36.3614 331.962 -36.9051 331.366 -36.8672 330.669C-36.8166 329.618 -30.6968 224.239 30.9313 161.508C91.7501 99.601 90.8904 52.911 90.8777 52.4548C90.8524 51.758 91.3961 51.1751 92.0915 51.1498C92.7996 51.1118 93.3686 51.6693 93.3939 52.3661C93.4698 54.3047 94.3928 100.513 32.7268 163.295C-28.2311 225.341 -34.2877 329.757 -34.3383 330.809C-34.3762 331.48 -34.9326 332.012 -35.6027 332.012V332Z" fill="black"/>
<path d="M54.9554 136.548C54.8542 136.548 54.7657 136.522 54.6772 136.459C54.4875 136.307 54.4496 136.041 54.5887 135.838C54.8289 135.382 68.725 100.108 44.4101 47.8682C44.3089 47.6401 44.4101 47.374 44.625 47.2727C44.8526 47.1713 45.1182 47.2727 45.2193 47.4881C70.2549 101.274 55.4991 136.117 55.3094 136.37C55.2209 136.484 55.0818 136.548 54.9554 136.548Z" fill="black"/>
<path d="M58.1797 103.846C55.4106 103.846 47.9125 102.072 38.5052 85.3597C31.7153 73.3103 33.182 60.0191 34.3579 49.3507C35.2304 41.4191 35.989 34.5645 33.3843 30.0412L31.8038 27.2791L34.0924 29.4837C66.3099 60.5386 74.8701 85.4611 59.5452 103.567L59.4567 103.668L59.3303 103.706C59.2544 103.732 58.8625 103.833 58.1923 103.833L58.1797 103.846ZM35.1292 31.777C36.6844 36.4017 36.0143 42.5214 35.243 49.4648C34.0165 60.5513 32.6383 73.1329 39.2765 84.9289C49.8345 103.668 57.8762 103.073 58.9383 102.883C73.5045 85.5244 65.488 61.6156 35.1292 31.777Z" fill="black"/>
<path d="M59.2797 102.477L59.0142 102.338C41.7927 92.8605 38.6822 58.4733 38.6443 58.1312C38.6443 57.9918 38.7328 57.8778 38.8719 57.8651C39.0363 57.8524 39.1248 57.9538 39.1374 58.0931C39.1627 58.4352 42.2226 92.2016 58.9889 101.755C62.0741 91.7455 64.4259 72.816 57.7498 63.6427C57.6739 63.5287 57.6992 63.3767 57.8003 63.3006C57.9015 63.2246 58.0659 63.25 58.1417 63.3513C65.0328 72.8287 62.6431 91.7708 59.3556 102.198L59.2671 102.49L59.2797 102.477Z" fill="black"/>
<path d="M59.4694 101.654L59.0774 100.995C48.2666 83.0791 47.9884 75.9331 48.3677 73.6905V73.6144C48.393 73.4877 48.5195 73.3737 48.6333 73.3864C48.7597 73.3864 48.8735 73.5004 48.8735 73.6271C48.8735 73.6524 48.8735 73.7031 48.8609 73.7791C48.57 75.4643 48.4815 82.3063 59.1153 100.083C60.2027 85.0684 57.5475 72.4868 55.5749 68.0268C55.5244 67.9001 55.5749 67.7608 55.7014 67.6974C55.8278 67.6467 55.9669 67.6974 56.0301 67.8241C58.0532 72.4108 60.797 85.4358 59.5579 100.881L59.4947 101.641L59.4694 101.654Z" fill="black"/>
<path d="M9.49932 191.334C9.39817 191.334 9.28436 191.296 9.19585 191.22C9.01883 191.056 8.99354 190.79 9.14527 190.599C9.42345 190.156 25.646 155.908 4.87152 102.148C4.78301 101.92 4.8968 101.654 5.1244 101.565C5.36464 101.477 5.61753 101.591 5.70604 101.819C27.0875 157.175 10.0304 190.942 9.81543 191.182C9.72692 191.284 9.60047 191.334 9.47403 191.334H9.49932Z" fill="black"/>
<path d="M15.2651 158.949C12.888 158.949 5.17497 157.39 -3.53692 139.171C-9.505 126.69 -7.15317 113.539 -5.26918 102.959C-3.86567 95.1033 -2.65182 88.312 -4.95307 83.624L-6.35659 80.7605L-4.2197 83.1172C25.8483 116.263 32.7141 141.717 16.2134 158.746L16.1249 158.848L15.9985 158.873C15.9985 158.873 15.6823 158.936 15.2524 158.936L15.2651 158.949ZM-3.30932 85.4738C-2.07019 90.1872 -3.14495 96.2563 -4.37144 103.124C-6.3313 114.109 -8.55668 126.564 -2.71504 138.778C6.61642 158.29 14.6329 158.138 15.695 158.011C31.3865 141.679 24.9885 117.276 -3.30932 85.4612V85.4738Z" fill="black"/>
<path d="M16.0617 157.644L15.8088 157.479C-0.742537 146.861 -1.55177 112.347 -1.55177 112.005C-1.55177 111.866 -1.45062 111.752 -1.31153 111.752C-1.1598 111.752 -1.05864 111.853 -1.05864 111.993C-1.05864 112.335 -0.262053 146.241 15.8214 156.896C19.5768 147.115 23.1804 128.388 17.1364 118.784C17.0606 118.67 17.0985 118.518 17.2123 118.442C17.3261 118.379 17.4778 118.404 17.5537 118.518C23.7999 128.439 20.1458 147.178 16.1755 157.352L16.0617 157.631V157.644Z" fill="black"/>
<path d="M16.3146 156.833L15.9605 156.149C6.36353 137.549 6.56585 130.39 7.09691 128.185V128.109C7.13484 127.983 7.26128 127.881 7.38772 127.894C7.51416 127.907 7.61532 128.021 7.60268 128.147C7.60268 128.173 7.60267 128.223 7.57738 128.287C7.17277 129.947 6.62906 136.763 16.049 155.224C18.1353 140.311 16.3272 127.59 14.6582 123.003C14.6076 122.877 14.6708 122.737 14.8099 122.687C14.9363 122.636 15.0754 122.699 15.126 122.839C16.833 127.552 18.7043 140.729 16.4284 156.06L16.3146 156.82V156.833Z" fill="black"/>
<path d="M56.1439 133.748C56.1439 133.748 56.0807 133.748 56.0428 133.748C55.8152 133.697 55.6508 133.481 55.7014 133.241C55.752 132.924 71.5193 98.5241 128.052 80.8363C128.292 80.7603 128.545 80.8997 128.621 81.1277C128.697 81.3558 128.558 81.6219 128.33 81.6979C73.2769 98.9168 56.6876 133.089 56.5991 133.418C56.5486 133.621 56.3589 133.76 56.1566 133.76L56.1439 133.748Z" fill="black"/>
<path d="M90.6754 113.146C79.6117 113.146 77.2093 108.534 77.0828 108.28L77.0196 108.154V108.014C80.0669 84.4727 104.217 74.0324 148.826 76.9593L152 77.1747L148.902 77.8589C143.807 78.9738 139.267 84.156 133.995 90.149C126.914 98.2074 118.101 108.242 104.635 111.334C98.8941 112.652 94.3043 113.146 90.6627 113.146H90.6754ZM77.9553 107.989C78.5369 108.901 83.5061 115.262 104.445 110.447C117.633 107.419 125.965 97.9286 133.324 89.5535C137.927 84.308 141.986 79.6834 146.449 77.7321C103.99 75.3375 80.952 85.5244 77.9679 107.989H77.9553Z" fill="black"/>
<path d="M86.0729 108.787C83.3797 108.787 80.7623 108.42 78.3093 107.583L78.0311 107.482L78.1829 107.216C83.6578 97.7639 96.0239 83.231 107.657 81.9513C107.808 81.926 107.91 82.04 107.922 82.1667C107.935 82.3061 107.834 82.4201 107.707 82.4328C96.4412 83.6745 84.0625 98.1566 78.7645 107.191C97.1113 113.171 124.069 92.6831 124.347 92.4803C124.461 92.3916 124.613 92.417 124.688 92.531C124.777 92.645 124.752 92.7971 124.638 92.8731C124.398 93.0505 103.699 108.774 86.0855 108.774L86.0729 108.787Z" fill="black"/>
<path d="M78.499 106.773L79.0174 106.215C89.5754 94.8878 101.031 88.1472 105.773 86.5507C105.899 86.5127 106.038 86.5761 106.089 86.7028C106.127 86.8295 106.063 86.9689 105.937 87.0196C101.322 88.5653 90.2581 95.0652 79.9151 105.987C100.197 101.882 105.178 97.2065 106.228 95.8634C106.278 95.8001 106.304 95.7621 106.316 95.7494C106.417 95.6607 106.569 95.6607 106.67 95.7621C106.759 95.8634 106.759 96.0155 106.67 96.1042L106.62 96.1548C105.229 97.954 99.7666 102.553 79.2703 106.608L78.5243 106.76L78.499 106.773Z" fill="black"/>
<path d="M-15.1696 242.434C-15.1696 242.434 -15.2328 242.434 -15.2708 242.434C-15.4984 242.383 -15.6627 242.167 -15.6122 241.927C-15.5616 241.61 0.205783 207.21 56.7382 189.522C56.9785 189.446 57.2314 189.586 57.3072 189.814C57.3831 190.042 57.244 190.308 57.0164 190.384C1.96333 207.603 -14.6259 241.775 -14.7144 242.104C-14.765 242.307 -14.9547 242.446 -15.157 242.446L-15.1696 242.434Z" fill="black"/>
<path d="M19.3618 221.832C8.2981 221.832 5.8957 217.22 5.76925 216.966L5.70604 216.84V216.7C8.7533 193.159 32.9038 182.718 77.5127 185.645L80.6864 185.861L77.5886 186.545C72.493 187.66 67.9537 192.842 62.681 198.835C55.6002 206.893 46.7872 216.928 33.3211 220.02C27.5806 221.338 22.9907 221.844 19.3492 221.844L19.3618 221.832ZM6.64171 216.675C7.22335 217.587 12.1925 223.935 33.1314 219.133C46.3194 216.105 54.6519 206.615 62.0109 198.24C66.6134 192.994 70.6722 188.369 75.1356 186.418C32.6889 184.023 9.6384 194.21 6.64171 216.675Z" fill="black"/>
<path d="M14.7593 217.46C12.0661 217.46 9.44873 217.093 6.9831 216.244L6.70493 216.143L6.85666 215.877C12.3316 206.424 24.6977 191.892 36.3304 190.612C36.4821 190.587 36.5833 190.701 36.5959 190.827C36.6086 190.967 36.5074 191.081 36.381 191.093C25.115 192.335 12.7362 206.817 7.43829 215.851C25.7851 221.832 52.7426 201.344 53.0208 201.141C53.1346 201.052 53.2863 201.078 53.3622 201.192C53.4507 201.293 53.4254 201.458 53.3116 201.534C53.0714 201.711 32.3728 217.435 14.7593 217.435V217.46Z" fill="black"/>
<path d="M7.18541 215.459L7.70382 214.901C18.2618 203.574 29.7175 196.833 34.4591 195.237C34.5855 195.199 34.7246 195.262 34.7752 195.389C34.8131 195.516 34.7499 195.655 34.6234 195.706C30.0083 197.251 18.9446 203.751 8.60156 214.673C28.8703 210.568 33.8521 205.893 34.9142 204.549C34.9648 204.486 34.9901 204.448 35.0154 204.435C35.1165 204.347 35.2683 204.347 35.3568 204.448C35.4453 204.549 35.4453 204.702 35.3568 204.79L35.3062 204.841C33.9027 206.64 28.4404 211.239 7.95671 215.294L7.21069 215.446L7.18541 215.459Z" fill="black"/>
<path d="M-35.7039 329.428C-35.7039 329.428 -35.7671 329.428 -35.805 329.428C-36.0326 329.377 -36.197 329.162 -36.1464 328.921C-36.0959 328.604 -20.3285 294.204 36.204 276.516C36.4442 276.44 36.6971 276.58 36.773 276.808C36.8488 277.036 36.7097 277.302 36.4821 277.378C-18.5709 294.61 -35.1602 328.781 -35.2613 329.098C-35.3119 329.301 -35.5016 329.44 -35.7039 329.44V329.428Z" fill="black"/>
<path d="M-1.17243 308.826C-12.2361 308.826 -14.6386 304.214 -14.765 303.96L-14.8282 303.834V303.694C-11.781 280.153 12.3696 269.713 56.9785 272.639L60.1522 272.855L57.0543 273.539C51.9587 274.654 47.4194 279.836 42.1468 285.829C35.066 293.888 26.2529 303.922 12.7868 307.014C7.04633 308.332 2.45647 308.826 -1.18508 308.826H-1.17243ZM-13.8925 303.669C-13.3109 304.581 -8.34172 310.929 12.5972 306.14C25.7725 303.112 34.1177 293.621 41.4766 285.246C46.0791 280.001 50.1379 275.376 54.6014 273.425C12.1546 271.03 -10.8959 281.217 -13.8925 303.682V303.669Z" fill="black"/>
<path d="M-5.7623 304.454C-8.45552 304.454 -11.0729 304.087 -13.5385 303.238L-13.8167 303.137L-13.665 302.871C-8.18999 293.419 4.17609 278.886 15.8088 277.606C15.9605 277.581 16.0617 277.695 16.0743 277.821C16.087 277.961 15.9858 278.075 15.8594 278.088C4.59335 279.329 -7.78538 293.811 -13.0833 302.845C5.25084 308.826 32.221 288.338 32.4992 288.135C32.613 288.046 32.7647 288.072 32.8406 288.186C32.9291 288.287 32.9038 288.452 32.79 288.528C32.5498 288.705 11.8511 304.429 -5.7623 304.429V304.454Z" fill="black"/>
<path d="M-13.3488 302.44L-12.8304 301.883C-2.27248 290.555 9.18321 283.815 13.9248 282.218C14.0512 282.18 14.1903 282.244 14.2409 282.37C14.2788 282.497 14.2156 282.636 14.0892 282.687C9.47402 284.233 -1.5897 290.733 -11.9327 301.654C8.33604 297.549 13.3305 292.874 14.38 291.531C14.4306 291.468 14.4559 291.43 14.4811 291.417C14.5823 291.328 14.734 291.328 14.8225 291.43C14.9111 291.531 14.9111 291.683 14.8225 291.772L14.772 291.822C13.3685 293.622 7.90613 298.221 -12.5902 302.275L-13.3362 302.427L-13.3488 302.44Z" fill="black"/>
<path d="M-23.7298 265.582C-23.8056 265.582 -23.8689 265.569 -23.9447 265.531C-24.1597 265.417 -24.2482 265.139 -24.1344 264.923C-17.8502 253.038 4.32782 239.925 22.4091 230.764C-12.2867 228.534 -19.4434 252.57 -19.5192 252.81C-19.5825 253.051 -19.8353 253.191 -20.0756 253.127C-20.3158 253.064 -20.4549 252.81 -20.3917 252.57C-20.3158 252.316 -12.7293 226.836 24.0908 229.991L25.6839 230.131L24.2552 230.853C9.34758 238.328 -16.6743 252.747 -23.3504 265.367C-23.4263 265.519 -23.5907 265.607 -23.7424 265.607L-23.7298 265.582Z" fill="black"/>
<path d="M-22.0481 259.285C-22.1366 259.285 -22.2251 259.26 -22.301 259.209C-22.5033 259.07 -22.5665 258.791 -22.4274 258.588C-22.2504 258.322 -4.40936 231.879 24.0402 229.979C24.2931 229.979 24.508 230.156 24.5207 230.397C24.5333 230.65 24.3437 230.865 24.1034 230.878C-3.89095 232.741 -21.4917 258.816 -21.6688 259.082C-21.7573 259.209 -21.8964 259.285 -22.0481 259.285Z" fill="black"/>
<path d="M24.5207 170.783C24.369 170.783 24.2172 170.707 24.1287 170.568C24.0023 170.352 24.0781 170.073 24.2804 169.947C37.7592 161.952 69.294 163.548 81.0025 164.461C52.5909 144.429 33.9406 161.166 33.751 161.344C33.5613 161.508 33.2831 161.496 33.1188 161.318C32.9544 161.141 32.967 160.849 33.1441 160.685C33.3337 160.507 53.084 142.731 82.8486 164.689L84.1383 165.639L82.5451 165.499C72.5056 164.638 38.6696 162.471 24.7483 170.732C24.6724 170.77 24.5965 170.796 24.5207 170.796V170.783Z" fill="black"/>
<path d="M28.453 165.601C28.2887 165.601 28.1243 165.499 28.0484 165.335C27.9473 165.107 28.0484 164.841 28.2634 164.739C28.5542 164.6 57.5475 151.372 82.798 164.638C83.013 164.752 83.1015 165.031 82.9877 165.246C82.8739 165.461 82.5957 165.55 82.3808 165.436C57.5222 152.373 28.9335 165.436 28.6427 165.55C28.5795 165.576 28.5163 165.588 28.453 165.588V165.601Z" fill="black"/>
<path d="M88.7155 72.8922C88.6396 72.8922 88.5764 72.8795 88.5132 72.8415C88.2982 72.7275 88.2097 72.4487 88.3235 72.2333C94.4813 60.2852 116.52 46.9434 134.513 37.5927C99.7919 35.7049 92.8881 59.8291 92.8123 60.0825C92.749 60.3232 92.4961 60.4626 92.2559 60.3993C92.0157 60.3359 91.8766 60.0825 91.9398 59.8418C92.0157 59.5884 99.3493 34.0197 136.195 36.7945L137.788 36.9085L136.372 37.6434C121.54 45.2709 95.6699 59.9558 89.1201 72.6515C89.0443 72.8035 88.8799 72.8922 88.7155 72.8922Z" fill="black"/>
<path d="M90.334 66.5823C90.2455 66.5823 90.1696 66.557 90.0937 66.5063C89.8914 66.367 89.8282 66.0882 89.9547 65.8855C90.1317 65.6194 107.695 38.9864 136.119 36.8071C136.397 36.8071 136.587 36.9718 136.599 37.2252C136.625 37.4787 136.435 37.6941 136.182 37.7067C108.188 39.8607 90.8777 66.1135 90.7007 66.3796C90.6122 66.5063 90.4731 66.5823 90.3213 66.5823H90.334Z" fill="black"/>
<path d="M1.01502 205.715C1.01502 205.715 0.977087 205.715 0.964443 205.715C0.711557 205.69 0.54718 205.462 0.57247 205.208C2.36795 190.093 -10.1878 162.269 -17.0663 149.674L-17.8376 148.268L-16.4467 149.066C15.6191 167.489 7.36243 192.766 7.27392 193.019C7.19806 193.26 6.93252 193.374 6.70493 193.298C6.46469 193.222 6.33825 192.956 6.42676 192.728C6.51527 192.487 14.2662 168.616 -15.511 150.663C-8.45552 163.916 3.22776 190.523 1.47021 205.31C1.44493 205.538 1.24261 205.702 1.02766 205.702L1.01502 205.715Z" fill="black"/>
<path d="M5.04853 197.669C4.79565 197.669 4.60599 197.454 4.60599 197.213C4.60599 196.922 4.99796 167.324 -16.9525 149.814C-17.1421 149.662 -17.1801 149.37 -17.0283 149.18C-16.8766 148.99 -16.5858 148.952 -16.3961 149.104C5.90834 166.893 5.50373 196.922 5.50373 197.226C5.50373 197.467 5.30142 197.669 5.04853 197.669Z" fill="black"/>
<path d="M43.4238 152.208C43.4238 152.208 43.348 152.208 43.31 152.196C43.0698 152.132 42.9307 151.892 42.9813 151.651C46.7872 136.915 38.0627 107.66 32.9291 94.2417L32.3601 92.7466L33.6245 93.7222C62.9339 116.275 51.3771 140.222 51.2633 140.463C51.1495 140.678 50.8839 140.767 50.6563 140.666C50.4414 140.552 50.3402 140.286 50.454 140.058C50.5678 139.829 61.4419 117.213 34.3326 95.4327C39.5547 109.522 47.5711 137.447 43.8537 151.866C43.8032 152.069 43.6135 152.208 43.4238 152.208Z" fill="black"/>
<path d="M48.4942 144.783C48.4942 144.783 48.4436 144.783 48.4183 144.783C48.1781 144.745 48.001 144.517 48.039 144.264C48.0895 143.973 52.4265 114.704 33.0176 94.3937C32.8406 94.2163 32.8532 93.9249 33.0302 93.7602C33.2073 93.5828 33.4981 93.5955 33.6625 93.7728C53.3875 114.4 48.9746 144.099 48.9241 144.403C48.8861 144.619 48.6965 144.783 48.4815 144.783H48.4942Z" fill="black"/>
<path d="M77.8794 98.2961C77.8794 98.2961 77.8415 98.2961 77.8162 98.2961C77.576 98.2581 77.3989 98.03 77.4369 97.7893C79.6496 82.7243 67.8525 54.5708 61.3154 41.7865L60.5821 40.3674L61.9477 41.2037C93.4951 60.4879 84.5556 85.5371 84.4671 85.7905C84.3786 86.0185 84.1257 86.1452 83.8854 86.0565C83.6578 85.9679 83.5314 85.7145 83.6199 85.4737C83.7084 85.233 92.1042 61.5902 62.8328 42.8255C69.5216 56.2687 80.4715 83.1804 78.322 97.916C78.284 98.144 78.0944 98.2961 77.8794 98.2961Z" fill="black"/>
<path d="M82.1279 90.3646H82.1026C81.8497 90.3646 81.66 90.1365 81.6727 89.8958C81.6853 89.6043 82.8739 60.0319 61.4166 41.926C61.2269 41.7613 61.2016 41.4825 61.366 41.2925C61.5304 41.1024 61.8086 41.0771 61.9982 41.2418C83.8096 59.6391 82.5957 89.6423 82.5704 89.9464C82.5704 90.1872 82.3555 90.3772 82.1152 90.3772L82.1279 90.3646Z" fill="black"/>
<path d="M-35.6027 323.156C-35.6027 323.156 -35.6407 323.156 -35.666 323.156C-35.9062 323.118 -36.0832 322.903 -36.0579 322.649C-36.0326 322.434 -33.036 300.666 -19.1652 280.217C-6.35658 261.325 18.6158 239.748 64.7673 244.119C65.0202 244.144 65.1972 244.36 65.1719 244.613C65.1466 244.866 64.9317 245.044 64.6788 245.018C18.9446 240.672 -5.74966 262.035 -18.4318 280.723C-32.1888 300.996 -35.1475 322.548 -35.1855 322.763C-35.2108 322.991 -35.4131 323.156 -35.628 323.156H-35.6027Z" fill="black"/>
<path d="M65.9053 247.641C67.6511 247.641 69.0664 246.223 69.0664 244.473C69.0664 242.724 67.6511 241.306 65.9053 241.306C64.1595 241.306 62.7442 242.724 62.7442 244.473C62.7442 246.223 64.1595 247.641 65.9053 247.641Z" fill="black"/>
<path d="M60.7465 241.306C62.0244 241.306 63.0603 240.268 63.0603 238.987C63.0603 237.707 62.0244 236.669 60.7465 236.669C59.4685 236.669 58.4326 237.707 58.4326 238.987C58.4326 240.268 59.4685 241.306 60.7465 241.306Z" fill="black"/>
<path d="M53.8427 239.329C53.8427 240.799 52.6541 242.003 51.1747 242.003C49.6954 242.003 48.5068 240.812 48.5068 239.329C48.5068 237.847 49.6954 236.656 51.1747 236.656C52.6541 236.656 53.8427 237.847 53.8427 239.329Z" fill="black"/>
<path d="M57.8256 251.962C60.0183 251.962 61.7959 250.18 61.7959 247.983C61.7959 245.786 60.0183 244.005 57.8256 244.005C55.6329 244.005 53.8553 245.786 53.8553 247.983C53.8553 250.18 55.6329 251.962 57.8256 251.962Z" fill="black"/>
<path d="M48.1148 247.983C49.6372 247.983 50.8713 246.747 50.8713 245.221C50.8713 243.696 49.6372 242.459 48.1148 242.459C46.5925 242.459 45.3584 243.696 45.3584 245.221C45.3584 246.747 46.5925 247.983 48.1148 247.983Z" fill="black"/>
<path d="M39.0868 244.474C40.9793 244.474 42.5134 242.936 42.5134 241.04C42.5134 239.144 40.9793 237.606 39.0868 237.606C37.1944 237.606 35.6602 239.144 35.6602 241.04C35.6602 242.936 37.1944 244.474 39.0868 244.474Z" fill="black"/>
<path d="M34.8004 246.273C34.8004 248.084 33.3337 249.542 31.5382 249.542C29.7427 249.542 28.276 248.072 28.276 246.273C28.276 244.473 29.7427 243.004 31.5382 243.004C33.3337 243.004 34.8004 244.473 34.8004 246.273Z" fill="black"/>
<path d="M40.9329 253.875C43.0279 253.875 44.7262 252.173 44.7262 250.074C44.7262 247.975 43.0279 246.273 40.9329 246.273C38.8379 246.273 37.1396 247.975 37.1396 250.074C37.1396 252.173 38.8379 253.875 40.9329 253.875Z" fill="black"/>
<path d="M48.6585 236.618C48.6585 238.113 47.4447 239.329 45.9527 239.329C44.4606 239.329 43.2468 238.113 43.2468 236.618C43.2468 235.123 44.4606 233.906 45.9527 233.906C47.4447 233.906 48.6585 235.123 48.6585 236.618Z" fill="black"/>
<path d="M22.2574 244.625C23.5213 244.625 24.546 243.599 24.546 242.332C24.546 241.066 23.5213 240.039 22.2574 240.039C20.9934 240.039 19.9688 241.066 19.9688 242.332C19.9688 243.599 20.9934 244.625 22.2574 244.625Z" fill="black"/>
<path d="M31.9555 239.456C31.9555 240.482 31.1336 241.306 30.1094 241.306C29.0852 241.306 28.2634 240.482 28.2634 239.456C28.2634 238.43 29.0852 237.606 30.1094 237.606C31.1336 237.606 31.9555 238.43 31.9555 239.456Z" fill="black"/>
<path d="M22.0677 252.608C23.8135 252.608 25.2287 251.19 25.2287 249.44C25.2287 247.691 23.8135 246.273 22.0677 246.273C20.3219 246.273 18.9066 247.691 18.9066 249.44C18.9066 251.19 20.3219 252.608 22.0677 252.608Z" fill="black"/>
<path d="M29.2117 254.344C30.1265 254.344 30.8681 253.601 30.8681 252.684C30.8681 251.767 30.1265 251.024 29.2117 251.024C28.2969 251.024 27.5553 251.767 27.5553 252.684C27.5553 253.601 28.2969 254.344 29.2117 254.344Z" fill="black"/>
<path d="M35.0913 254.813C35.8734 254.813 36.5074 254.177 36.5074 253.393C36.5074 252.61 35.8734 251.974 35.0913 251.974C34.3091 251.974 33.6751 252.61 33.6751 253.393C33.6751 254.177 34.3091 254.813 35.0913 254.813Z" fill="black"/>
<path d="M53.1725 251.544C53.1725 252.937 52.0472 254.078 50.6437 254.078C49.2402 254.078 48.1148 252.95 48.1148 251.544C48.1148 250.137 49.2402 249.01 50.6437 249.01C52.0472 249.01 53.1725 250.137 53.1725 251.544Z" fill="black"/>
<path d="M18.7802 250.923C18.7802 252.544 17.4652 253.862 15.8467 253.862C14.2283 253.862 12.9133 252.544 12.9133 250.923C12.9133 249.301 14.2283 247.983 15.8467 247.983C17.4652 247.983 18.7802 249.301 18.7802 250.923Z" fill="black"/>
<path d="M23.9011 170.694C23.8 170.694 23.6988 170.656 23.6103 170.593C23.4206 170.428 23.3953 170.149 23.5597 169.959C41.5525 148.559 66.803 137.08 92.8628 138.461C102.801 138.993 113.283 141.198 124.031 145.049C124.271 145.138 124.385 145.391 124.309 145.62C124.221 145.86 123.968 145.987 123.74 145.898C113.068 142.085 102.675 139.893 92.8249 139.36C67.0559 137.992 42.0709 149.357 24.2551 170.542C24.1666 170.643 24.0402 170.707 23.9137 170.707L23.9011 170.694Z" fill="black"/>
<path d="M128.09 146.418C127.66 148.116 125.94 149.142 124.246 148.711C122.552 148.28 121.527 146.557 121.957 144.859C122.387 143.162 124.107 142.135 125.801 142.566C127.495 142.997 128.52 144.72 128.09 146.418Z" fill="black"/>
<path d="M123.614 139.627C123.298 140.868 122.033 141.629 120.794 141.312C119.555 140.995 118.796 139.728 119.112 138.486C119.428 137.245 120.693 136.484 121.932 136.801C123.171 137.118 123.93 138.385 123.614 139.627Z" fill="black"/>
<path d="M114.598 137.688C114.232 139.12 112.79 139.981 111.361 139.614C109.933 139.246 109.073 137.802 109.439 136.37C109.806 134.938 111.248 134.077 112.676 134.444C114.105 134.812 114.965 136.256 114.598 137.688Z" fill="black"/>
<path d="M120.187 148.04C119.643 150.168 117.481 151.461 115.357 150.928C113.233 150.384 111.943 148.217 112.474 146.088C113.018 143.96 115.18 142.667 117.304 143.2C119.428 143.744 120.718 145.911 120.187 148.04Z" fill="black"/>
<path d="M110.261 142.667C109.882 144.15 108.39 145.037 106.911 144.669C105.431 144.302 104.546 142.794 104.913 141.312C105.292 139.829 106.784 138.942 108.264 139.31C109.743 139.69 110.628 141.185 110.261 142.667Z" fill="black"/>
<path d="M103.193 136.56C102.725 138.397 100.867 139.512 99.0332 139.044C97.1998 138.575 96.0871 136.712 96.555 134.875C97.0228 133.038 98.8815 131.923 100.715 132.392C102.548 132.861 103.661 134.723 103.193 136.56Z" fill="black"/>
<path d="M94.4434 139.728C94.0008 141.477 92.218 142.541 90.4731 142.097C88.7282 141.654 87.6661 139.867 88.1086 138.119C88.5512 136.37 90.334 135.306 92.0789 135.75C93.8238 136.193 94.8859 137.98 94.4434 139.728Z" fill="black"/>
<path d="M103.13 145.86C102.612 147.9 100.551 149.129 98.5275 148.61C96.4917 148.09 95.2652 146.025 95.7837 143.998C96.3021 141.958 98.3631 140.729 100.386 141.248C102.422 141.768 103.648 143.833 103.13 145.86Z" fill="black"/>
<path d="M110.223 133.786C109.857 135.23 108.39 136.117 106.936 135.749C105.494 135.382 104.609 133.912 104.976 132.455C105.343 131.011 106.809 130.124 108.264 130.491C109.705 130.859 110.59 132.328 110.223 133.786Z" fill="black"/>
<path d="M85.4533 133.393C85.1372 134.622 83.8981 135.369 82.6716 135.052C81.4451 134.736 80.6991 133.494 81.0152 132.265C81.3313 131.036 82.5704 130.288 83.7969 130.605C85.0234 130.922 85.7694 132.164 85.4533 133.393Z" fill="black"/>
<path d="M93.356 132.43C93.1031 133.418 92.1042 134.014 91.1179 133.773C90.1317 133.519 89.5374 132.519 89.7776 131.53C90.0305 130.542 91.0294 129.946 92.0157 130.187C93.0019 130.441 93.5962 131.442 93.356 132.43Z" fill="black"/>
<path d="M84.3786 140.45C83.9486 142.148 82.229 143.174 80.5347 142.743C78.8404 142.313 77.8162 140.589 78.2461 138.892C78.676 137.194 80.3956 136.167 82.0899 136.598C83.7843 137.029 84.8085 138.752 84.3786 140.45Z" fill="black"/>
<path d="M89.0569 144.986C88.8293 145.873 87.9316 146.418 87.0465 146.19C86.1614 145.962 85.6177 145.062 85.8453 144.175C86.0729 143.288 86.9706 142.743 87.8557 142.971C88.7408 143.199 89.2845 144.099 89.0569 144.986Z" fill="black"/>
<path d="M94.3422 147.064C94.1526 147.824 93.3813 148.293 92.61 148.09C91.8387 147.887 91.3835 147.127 91.5858 146.354C91.7755 145.594 92.5467 145.125 93.318 145.328C94.0767 145.518 94.5445 146.291 94.3422 147.064Z" fill="black"/>
<path d="M110.944 149.37C110.603 150.726 109.225 151.549 107.872 151.207C106.519 150.865 105.697 149.484 106.038 148.128C106.38 146.773 107.758 145.949 109.111 146.291C110.464 146.633 111.286 148.014 110.944 149.37Z" fill="black"/>
<path d="M77.753 140.311C77.361 141.882 75.7552 142.845 74.1873 142.439C72.6194 142.047 71.6584 140.437 72.0631 138.866C72.455 137.295 74.0608 136.332 75.6287 136.738C77.1966 137.131 78.1576 138.74 77.753 140.311Z" fill="black"/>
<path d="M74.554 107.495C74.4781 107.495 74.3896 107.47 74.3264 107.432C74.1114 107.305 74.0482 107.026 74.1746 106.811C88.5006 83.1173 91.257 55.7621 81.7106 31.7392C78.0691 22.5533 72.6573 13.3926 65.6398 4.48541C65.488 4.29535 65.5133 4.00394 65.7156 3.85189C65.9053 3.69985 66.1961 3.72519 66.3479 3.92791C73.416 12.9112 78.8783 22.1478 82.5451 31.4098C92.1801 55.6988 89.411 83.3454 74.9333 107.28C74.8448 107.419 74.7057 107.495 74.554 107.495Z" fill="black"/>
<path d="M63.7305 0.506867C62.2638 1.45714 61.8465 3.42104 62.7948 4.89079C63.7431 6.36055 65.703 6.77867 67.1697 5.8284C68.6365 4.87812 69.0537 2.91422 68.1054 1.44447C67.1571 -0.0252858 65.1972 -0.443406 63.7305 0.506867Z" fill="black"/>
<path d="M71.5952 2.58481C70.5205 3.28167 70.217 4.71342 70.9124 5.79039C71.6079 6.86737 73.0367 7.17146 74.1114 6.47459C75.1862 5.77772 75.4897 4.34598 74.7942 3.269C74.0988 2.19203 72.67 1.88794 71.5952 2.58481Z" fill="black"/>
<path d="M76.3115 10.529C75.0724 11.3272 74.7184 12.9744 75.5149 14.2161C76.3115 15.4578 77.9553 15.8125 79.1944 15.0143C80.4336 14.2161 80.7876 12.5689 79.991 11.3272C79.1944 10.0855 77.5507 9.73078 76.3115 10.529Z" fill="black"/>
<path d="M64.7294 8.53988C62.8833 9.73089 62.3523 12.2016 63.5535 14.0515C64.742 15.9013 67.2077 16.4335 69.0537 15.2298C70.8998 14.0388 71.4309 11.5681 70.2296 9.71822C69.0411 7.86836 66.5755 7.33621 64.7294 8.53988Z" fill="black"/>
<path d="M72.9734 16.2307C71.6964 17.0542 71.3297 18.7647 72.1516 20.0444C72.9734 21.3241 74.6804 21.6916 75.9575 20.868C77.2346 20.0444 77.6012 18.3339 76.7794 17.0542C75.9575 15.7745 74.2505 15.4071 72.9734 16.2307Z" fill="black"/>
<path d="M81.0278 20.9946C79.4347 22.0209 78.9795 24.1495 80.0163 25.7333C81.0405 27.3298 83.1647 27.7859 84.7452 26.747C86.3384 25.7207 86.7936 23.592 85.7568 22.0083C84.7326 20.4118 82.6084 19.9557 81.0278 20.9946Z" fill="black"/>
<path d="M80.8255 30.32C79.3082 31.2956 78.8783 33.3228 79.8519 34.8433C80.8255 36.3637 82.8486 36.7945 84.3659 35.8189C85.8832 34.8433 86.3131 32.816 85.3395 31.2956C84.3659 29.7752 82.3428 29.3444 80.8255 30.32Z" fill="black"/>
<path d="M72.2527 24.0355C70.4952 25.1758 69.9894 27.5325 71.1274 29.2937C72.2654 31.0549 74.6172 31.5617 76.3748 30.4213C78.1323 29.281 78.6381 26.9243 77.5001 25.1632C76.3621 23.402 74.0103 22.8952 72.2527 24.0355Z" fill="black"/>
<path d="M81.3945 13.4306C80.1427 14.2415 79.7887 15.914 80.5979 17.1683C81.4072 18.4227 83.0762 18.7775 84.328 17.9666C85.5798 17.1557 85.9338 15.4832 85.1246 14.2288C84.3153 12.9745 82.6463 12.6197 81.3945 13.4306Z" fill="black"/>
<path d="M89.6891 36.8199C88.627 37.5041 88.3236 38.9359 89.0063 40.0002C89.6891 41.0645 91.1179 41.3686 92.1801 40.6844C93.2422 40.0002 93.5456 38.5684 92.8628 37.5041C92.1801 36.4398 90.7513 36.1357 89.6891 36.8199Z" fill="black"/>
<path d="M88.0833 29.0151C87.2235 29.5726 86.9833 30.713 87.5396 31.5745C88.096 32.4361 89.2339 32.6769 90.0938 32.1194C90.9536 31.5619 91.1938 30.4215 90.6375 29.56C90.0811 28.6984 88.9431 28.4576 88.0833 29.0151Z" fill="black"/>
<path d="M83.367 40.0889C81.9003 41.0392 81.483 43.0031 82.4313 44.4728C83.3797 45.9426 85.3395 46.3607 86.8063 45.4104C88.273 44.4602 88.6902 42.4963 87.7419 41.0265C86.7936 39.5567 84.8338 39.1386 83.367 40.0889Z" fill="black"/>
<path d="M77.5886 37.1113C76.8173 37.6055 76.6024 38.6445 77.0955 39.4047C77.5886 40.1776 78.6254 40.393 79.3841 39.8988C80.1554 39.4047 80.3703 38.3657 79.8772 37.6055C79.3841 36.8326 78.3473 36.6172 77.5886 37.1113Z" fill="black"/>
<path d="M73.9344 32.7527C73.2769 33.1835 73.0873 34.0577 73.5172 34.7293C73.9471 35.3881 74.8195 35.5782 75.4897 35.1474C76.1472 34.7166 76.3368 33.8424 75.9069 33.1708C75.477 32.512 74.6046 32.3219 73.9344 32.7527Z" fill="black"/>
<path d="M66.4364 17.7258C65.2605 18.486 64.9317 20.0571 65.6904 21.2228C66.449 22.4011 68.0169 22.7306 69.1802 21.9703C70.3561 21.2101 70.6848 19.639 69.9262 18.4733C69.1675 17.295 67.5996 16.9656 66.4364 17.7258Z" fill="black"/>
<path d="M85.6177 46.3354C84.2521 47.2223 83.8601 49.0341 84.7452 50.4025C85.6303 51.7709 87.4385 52.1637 88.804 51.2768C90.1696 50.3899 90.5616 48.578 89.6765 47.2096C88.7914 45.8412 86.9833 45.4484 85.6177 46.3354Z" fill="black"/>
</g>
<defs>
<clipPath id="clip0_1_656">
<rect width="229" height="332" fill="white" transform="translate(-77)"/>
</clipPath>
</defs>
</svg>
