<svg width="145" height="194" viewBox="0 0 145 194" fill="none" xmlns="http://www.w3.org/2000/svg">
<g clip-path="url(#clip0_1_789)">
<path d="M50.4901 64.52C50.6101 64.18 50.7301 63.83 50.7801 63.46C50.8701 62.75 50.9601 61.96 51.4301 61.39C52.2801 46.54 50.7601 32.93 46.0201 30.09C44.7101 29.31 43.4201 29.06 42.1901 29.38C39.4601 30.07 37.5401 33.31 36.1401 35.67C35.5301 36.7 35.0101 37.58 34.5901 37.96C33.8201 38.66 33.7601 38.61 33.2401 38.14C32.7301 37.68 31.9601 36.99 30.2501 36.59C29.7001 36.46 29.2201 36.53 28.8201 36.78C27.9101 37.36 27.6001 38.8 27.3101 40.19C27.0501 41.4 26.7901 42.65 26.1701 42.94C25.9001 43.07 25.5401 43.01 25.0601 42.77C22.8901 41.66 19.5401 41.26 17.3201 42.99C15.6601 44.28 14.0201 47.25 15.5801 54.09C16.4901 58.07 19.1901 61.86 22.5101 65.23C23.1001 65.26 23.5201 65.76 24.0201 65.99C24.2201 66.08 24.4101 66.15 24.6001 66.21C20.6401 62.56 17.2701 58.33 16.2601 53.93C15.0901 48.81 15.6001 45.22 17.7401 43.55C18.4101 43.03 19.1901 42.73 20.0201 42.6C21.6401 42.34 23.4101 42.74 24.7201 43.4C25.4001 43.75 25.9801 43.8 26.4601 43.58C27.3901 43.14 27.6801 41.77 27.9901 40.33C28.2501 39.08 28.5301 37.8 29.1901 37.38C29.4301 37.23 29.7201 37.2 30.0801 37.28C31.6101 37.64 32.2701 38.23 32.7501 38.66C33.4901 39.32 33.9301 39.5 35.0601 38.48C35.5501 38.03 36.0801 37.15 36.7401 36.02C38.0801 33.77 39.9001 30.68 42.3501 30.06C43.4001 29.79 44.4801 30 45.6401 30.69C50.4201 33.55 51.7001 48.88 50.4801 64.5L50.4901 64.52Z" fill="black"/>
<path d="M41.4 75.7C27.84 67.87 22.24 55.65 22.18 55.51C22.14 55.41 22.02 55.36 21.92 55.41C21.82 55.45 21.78 55.57 21.82 55.67C21.88 55.81 27.5 68.09 41.11 75.99C41.2 75.89 41.3 75.8 41.39 75.7H41.4Z" fill="black"/>
<path d="M47.22 73.3901C47.35 73.3901 47.48 73.4201 47.61 73.4401C48.25 61.1301 47.11 49.9201 44.52 43.9801C44.48 43.8801 44.37 43.8401 44.26 43.8801C44.16 43.9201 44.12 44.0401 44.16 44.1401C46.72 50.0301 47.85 61.1501 47.22 73.3901Z" fill="black"/>
<path d="M45.71 73.4102C43.72 65.4002 40.77 56.2602 38.86 53.3902C38.8 53.3002 38.68 53.2802 38.59 53.3402C38.5 53.4002 38.48 53.5202 38.54 53.6102C40.39 56.3902 43.34 65.5402 45.32 73.4502C45.45 73.4302 45.58 73.4302 45.72 73.4202L45.71 73.4102Z" fill="black"/>
<path d="M42.2301 74.6901C42.2301 74.6901 42.2901 74.6301 42.3101 74.6001C35.2301 66.8401 27.9901 51.8701 27.9001 51.6901C27.8501 51.5901 27.7401 51.5501 27.6401 51.6001C27.5401 51.6501 27.5001 51.7601 27.5501 51.8601C27.9101 52.6101 34.9901 67.2301 42.0501 74.9101C42.1001 74.8301 42.1701 74.7701 42.2201 74.6901H42.2301Z" fill="black"/>
<path d="M49.21 52.1301C49.21 52.1301 49.2 52.1301 49.19 52.1301C49.08 52.1301 48.99 52.0601 48.98 51.9501C48.1 40.7101 43.45 33.77 43.4 33.7C43.34 33.61 43.36 33.49 43.45 33.43C43.54 33.37 43.66 33.39 43.72 33.48C43.77 33.55 48.47 40.58 49.36 51.92C49.36 52.02 49.3 52.1101 49.2 52.1301H49.21Z" fill="black"/>
<path d="M45.24 63.73C45.13 63.74 45.04 63.67 45.02 63.56C43.62 51.65 37.24 41.37 37.17 41.27C37.11 41.18 37.14 41.06 37.23 41C37.32 40.94 37.44 40.97 37.5 41.06C37.56 41.16 43.99 51.51 45.4 63.51C45.41 63.61 45.34 63.71 45.24 63.72V63.73Z" fill="black"/>
<path d="M3.17002 59.77C1.84002 60.51 0.990016 61.51 0.650016 62.74C-0.109984 65.45 1.74002 68.73 3.08002 71.12C3.67002 72.16 4.17002 73.06 4.29002 73.6C4.51002 74.62 4.44002 74.64 3.77002 74.86C3.12002 75.07 2.14002 75.4 0.940016 76.68C0.560016 77.09 0.370016 77.54 0.390016 78.02C0.440016 79.1 1.53002 80.08 2.59002 81.03C3.51002 81.86 4.46002 82.71 4.41002 83.39C4.39002 83.69 4.16002 83.98 3.71002 84.27C1.67002 85.6 -0.349984 88.29 0.040016 91.08C0.330016 93.16 2.09002 96.07 8.79002 98.13C11.64 99 14.88 99 18.2 98.47C24.57 97.45 31.21 94.49 35.95 92.01C36.13 91.79 36.32 91.59 36.53 91.39L36.45 90.92C29.4 94.68 17.29 100 9.00002 97.46C3.97002 95.92 1.12002 93.68 0.740016 90.99C0.390016 88.51 2.23002 86.08 4.09002 84.87C4.73002 84.46 5.07002 83.98 5.11002 83.45C5.19002 82.42 4.15002 81.49 3.06002 80.51C2.11002 79.66 1.13002 78.78 1.10002 78C1.09002 77.72 1.20002 77.45 1.46002 77.18C2.53002 76.03 3.38002 75.75 3.99002 75.55C4.93002 75.24 5.31002 74.95 4.98002 73.46C4.84002 72.81 4.33002 71.91 3.69002 70.78C2.40002 68.5 0.640016 65.37 1.32002 62.94C1.62002 61.89 2.33002 61.06 3.51002 60.4C3.97002 60.14 4.51002 59.97 5.12002 59.87C11.87 58.79 27.4 67.04 40.39 76.76C40.55 76.58 40.71 76.41 40.88 76.24C26.27 65.27 9.02002 56.51 3.16002 59.78L3.17002 59.77Z" fill="black"/>
<path d="M40.47 86.4702C26.89 94.3702 13.46 93.1102 13.31 93.1002C13.2 93.0902 13.11 93.1702 13.1 93.2702C13.09 93.3802 13.17 93.4702 13.27 93.4802C13.35 93.4802 17.41 93.8702 23.3 92.9302C28.24 92.1402 34.47 90.4102 40.72 86.7702C40.64 86.6702 40.55 86.5702 40.47 86.4702Z" fill="black"/>
<path d="M14.42 68.3801C20.36 69.0501 29.61 73.0601 39.16 78.9801C39.19 78.8501 39.24 78.7201 39.28 78.5901C29.71 72.6701 20.43 68.6601 14.46 67.9901C14.35 67.9801 14.26 68.0601 14.25 68.1601C14.24 68.2701 14.31 68.3601 14.42 68.3701V68.3801Z" fill="black"/>
<path d="M39.75 85.21C29.48 87.43 13.05 86.25 12.85 86.23C12.74 86.22 12.65 86.3 12.64 86.41C12.64 86.52 12.71 86.61 12.82 86.62C13.58 86.68 27.32 87.67 37.45 86.05C38.3 85.91 39.13 85.76 39.93 85.58C39.86 85.46 39.81 85.33 39.75 85.21Z" fill="black"/>
<path d="M19.82 77.9799C22.94 77.7699 31.4 79.5299 38.91 81.5899C38.91 81.4499 38.91 81.3199 38.91 81.1799C31.37 79.0999 23.01 77.3799 19.8 77.5899C19.68 77.5899 19.61 77.6899 19.62 77.7999C19.62 77.9099 19.72 77.9899 19.83 77.9799H19.82Z" fill="black"/>
<path d="M23.71 68.11C23.71 68.11 23.63 68.11 23.6 68.09C13.42 63.25 5.08004 63.81 5.00004 63.82C4.89004 63.82 4.80004 63.75 4.79004 63.64C4.79004 63.53 4.87004 63.45 4.97004 63.43C5.05004 63.43 13.5 62.85 23.77 67.74C23.87 67.79 23.91 67.9 23.86 68C23.83 68.06 23.78 68.1 23.72 68.11H23.71Z" fill="black"/>
<path d="M31.78 77.3401C31.78 77.3401 31.71 77.3401 31.67 77.3301C20.65 72.6001 8.55999 73.0001 8.43999 73.0101C8.32999 73.0101 8.23999 72.9301 8.23999 72.8201C8.23999 72.7101 8.31999 72.6202 8.42999 72.6202C8.54999 72.6202 20.73 72.2102 31.83 76.9802C31.93 77.0202 31.97 77.1402 31.93 77.2302C31.9 77.2902 31.85 77.3401 31.78 77.3501V77.3401Z" fill="black"/>
<path d="M51.5001 88.8501C51.2901 88.9701 51.0701 89.0701 50.8601 89.1701C50.9601 89.4601 51.0101 89.6501 51.0201 89.6601V89.6901C51.1101 89.9201 59.1201 113.26 52.4701 124.23C49.7501 128.73 46.8801 130.95 44.1801 130.66C41.6901 130.39 39.7801 128.01 39.0701 125.91C38.8301 125.19 38.4501 124.74 37.9401 124.57C37.6901 124.49 37.4301 124.47 37.1501 124.52C36.3601 124.65 35.4901 125.23 34.5801 125.84C33.5201 126.55 32.4301 127.28 31.6601 127.13C31.3801 127.07 31.1501 126.89 30.9501 126.58C30.1001 125.26 30.0401 124.37 29.9901 123.73C29.9201 122.74 29.7301 122.3 28.2001 122.26C27.5401 122.24 26.5401 122.51 25.2801 122.85C22.7501 123.54 19.2901 124.48 17.1001 123.23C16.1501 122.69 15.5201 121.79 15.1701 120.49C13.4701 114.17 27.2001 98.8801 41.4801 87.6001C41.3001 87.4401 41.1301 87.2701 40.9801 87.0901C26.2601 98.7101 12.7001 113.99 14.4901 120.67C14.8901 122.14 15.6501 123.21 16.7501 123.84C19.1901 125.24 22.8201 124.25 25.4701 123.53C26.6201 123.22 27.6101 122.94 28.1801 122.96C29.2201 122.99 29.2301 123.07 29.2801 123.77C29.3301 124.45 29.4001 125.49 30.3501 126.96C30.6501 127.43 31.0501 127.72 31.5101 127.82C32.5701 128.04 33.7901 127.22 34.9701 126.43C36.0001 125.74 37.0601 125.02 37.7001 125.24C37.9901 125.34 38.2101 125.63 38.3801 126.13C39.1701 128.43 41.2901 131.05 44.0901 131.36C44.5001 131.4 44.9601 131.4 45.4601 131.32C47.48 131 50.1501 129.41 53.0701 124.59C59.8701 113.37 52.1001 90.6001 51.7001 89.4501C51.6801 89.3801 51.6201 89.1501 51.5001 88.8301V88.8501Z" fill="black"/>
<path d="M43.1 88.8201C34.27 97.1101 27.47 105.77 25.23 111.74C25.19 111.84 25.24 111.95 25.34 111.99C25.44 112.03 25.55 111.98 25.59 111.88C27.82 105.94 34.62 97.3001 43.44 89.0301C43.33 88.9601 43.21 88.8901 43.1 88.8201Z" fill="black"/>
<path d="M49.12 89.7301C54.12 105.39 49.36 118.86 49.3 119C49.26 119.1 49.32 119.21 49.42 119.25C49.45 119.26 49.49 119.26 49.52 119.25C49.59 119.24 49.65 119.19 49.67 119.12C49.72 118.97 54.53 105.42 49.51 89.6301C49.38 89.6601 49.25 89.6901 49.12 89.7101V89.7301Z" fill="black"/>
<path d="M44.9101 89.6802C40.7401 96.8402 36.4701 105.51 35.8501 108.92C35.8301 109.02 35.9001 109.13 36.0101 109.15C36.1201 109.17 36.2201 109.1 36.2401 108.99C36.8401 105.69 41.1301 96.9902 45.2401 89.9202C45.1001 89.8802 44.9901 89.8002 44.9201 89.6802H44.9101Z" fill="black"/>
<path d="M48.1401 89.8303C48.3201 100.25 42.6001 117.57 42.5301 117.77C42.5001 117.87 42.5501 117.98 42.6501 118.02C42.6801 118.02 42.7101 118.03 42.7401 118.02C42.8101 118.01 42.8701 117.96 42.8901 117.89C43.1701 117.06 48.7301 100.19 48.5201 89.8003C48.3901 89.8103 48.2601 89.8203 48.1301 89.8303H48.1401Z" fill="black"/>
<path d="M18.7101 120.06C18.7101 120.06 18.6701 120.06 18.6501 120.06C18.5401 120.04 18.4701 119.94 18.4901 119.84C18.5001 119.76 20.0201 111.43 27.2701 102.67C27.3401 102.59 27.4601 102.58 27.5401 102.64C27.6201 102.71 27.6301 102.83 27.5701 102.91C20.3901 111.59 18.8901 119.82 18.8801 119.9C18.8701 119.98 18.8001 120.05 18.7201 120.06H18.7101Z" fill="black"/>
<path d="M28.46 118.95C28.46 118.95 28.41 118.95 28.39 118.95C28.29 118.93 28.22 118.82 28.24 118.72C28.27 118.6 30.85 106.7 38.19 97.1C38.26 97.01 38.38 97 38.46 97.06C38.54 97.12 38.56 97.25 38.5 97.33C31.22 106.86 28.65 118.68 28.62 118.8C28.6 118.88 28.54 118.94 28.46 118.95Z" fill="black"/>
<path d="M89.41 84.7701C83.07 79.2801 71.09 78.8501 62.95 79.3201C62.75 79.4201 62.55 79.5401 62.37 79.6601C62.21 79.7601 62.06 79.7501 61.94 79.6801C61.91 79.6901 61.89 79.7101 61.86 79.7201C61.08 79.8701 60.32 80.1001 59.57 80.3301C67.24 79.6301 81.91 79.2301 88.94 85.3101C92.91 88.7501 94.62 91.9501 93.88 94.5601C93.19 96.9701 90.53 98.4501 88.34 98.8001C87.59 98.9201 87.08 99.2201 86.83 99.6801C86.34 100.59 86.91 101.86 87.52 103.2C88.04 104.36 88.58 105.56 88.3 106.29C88.2 106.55 87.98 106.75 87.64 106.9C86.2 107.52 85.31 107.43 84.67 107.36C83.68 107.26 83.22 107.38 82.92 108.87C82.79 109.52 82.89 110.55 83.01 111.84C83.26 114.45 83.61 118.02 82.01 119.96C81.32 120.8 80.32 121.27 78.98 121.4C72.8 121.98 60.99 107.51 52.36 92.3801L52.67 94.3501C61.43 109.3 72.72 122.7 79.05 122.11C79.21 122.09 79.36 122.08 79.51 122.05C80.81 121.84 81.83 121.3 82.55 120.42C84.34 118.25 83.98 114.51 83.71 111.77C83.59 110.58 83.49 109.56 83.61 109.01C83.82 107.98 83.89 107.99 84.59 108.06C85.27 108.13 86.3 108.23 87.91 107.54C88.43 107.32 88.78 106.98 88.95 106.54C89.34 105.53 88.74 104.19 88.16 102.9C87.65 101.77 87.13 100.6 87.45 100.01C87.59 99.7401 87.92 99.5701 88.44 99.4901C90.84 99.1001 93.78 97.4501 94.55 94.7401C95.12 92.7201 94.7 89.3501 89.39 84.7601L89.41 84.7701Z" fill="black"/>
<path d="M72.25 109.71C66.73 106.49 59.3 98.2501 52.59 88.0601C52.49 88.1401 52.38 88.2201 52.28 88.2901C59.01 98.5101 66.49 106.79 72.05 110.04C72.09 110.06 72.14 110.07 72.18 110.06C72.24 110.06 72.29 110.02 72.32 109.97C72.37 109.88 72.34 109.76 72.25 109.7V109.71Z" fill="black"/>
<path d="M83.45 87.2C83.32 87.12 71.37 80.45 55.57 82.25C55.55 82.38 55.53 82.52 55.51 82.65C71.23 80.83 83.12 87.47 83.26 87.54C83.35 87.59 83.47 87.56 83.53 87.47C83.58 87.38 83.55 87.26 83.46 87.2H83.45Z" fill="black"/>
<path d="M71.19 98.7401C68.03 97.5901 60.16 91.8801 53.88 86.6301C53.8 86.7401 53.73 86.8401 53.65 86.9501C60 92.2601 67.81 97.9201 71.06 99.1001C71.09 99.1101 71.13 99.1101 71.16 99.1001C71.23 99.0901 71.29 99.0401 71.31 98.9701C71.35 98.8701 71.29 98.7601 71.19 98.7201V98.7401Z" fill="black"/>
<path d="M81.0901 93.6601C80.3501 93.2601 65.6401 85.4601 55.3801 83.5601C55.3801 83.6401 55.3601 83.7201 55.3501 83.8001C55.3501 83.8601 55.3301 83.9001 55.3301 83.9601C65.6401 85.9101 80.7301 93.9201 80.9101 94.0101C81.0001 94.0601 81.1201 94.0201 81.1701 93.9301C81.2201 93.8401 81.1901 93.7201 81.0901 93.6701V93.6601Z" fill="black"/>
<path d="M78.98 118.06C78.98 118.06 78.92 118.06 78.88 118.06C78.8 118.03 70.85 115.14 63.43 106.52C63.36 106.44 63.37 106.32 63.45 106.25C63.53 106.18 63.65 106.19 63.72 106.27C71.06 114.81 78.92 117.67 79 117.7C79.1 117.74 79.15 117.85 79.12 117.95C79.1 118.02 79.04 118.07 78.97 118.08L78.98 118.06Z" fill="black"/>
<path d="M79.5401 108.26C79.5401 108.26 79.4701 108.26 79.4401 108.25C79.3301 108.2 68.0301 103.65 59.8001 94.8C59.7301 94.72 59.7301 94.6 59.8101 94.53C59.8901 94.46 60.0101 94.46 60.0901 94.53C68.2601 103.31 79.4801 107.83 79.5901 107.88C79.6901 107.92 79.7401 108.03 79.7001 108.13C79.6701 108.2 79.6201 108.24 79.5501 108.25L79.5401 108.26Z" fill="black"/>
<path d="M94.4001 58.19C92.7701 55.9 89.0601 55.28 86.3501 54.83C85.1701 54.63 84.1601 54.47 83.6501 54.22C82.7201 53.75 82.7401 53.69 82.9901 53.02C83.2301 52.38 83.6001 51.41 83.3501 49.68C83.2701 49.12 83.0401 48.7 82.6501 48.42C81.7801 47.78 80.3301 48.02 78.9301 48.24C77.7101 48.44 76.4501 48.64 75.9501 48.18C75.7301 47.97 75.6501 47.62 75.7001 47.09C75.9501 44.67 75.1101 41.4 72.7001 39.96C70.9001 38.88 67.5301 38.42 61.7201 42.36C52.1101 48.86 49.0801 68.34 48.4301 73.58C48.6601 73.63 48.9001 73.67 49.1301 73.74C49.7801 68.71 52.8401 49.23 62.1101 42.95C64.5601 41.29 66.7501 40.31 68.6101 40.01C70.0601 39.78 71.3101 39.96 72.3301 40.57C74.4801 41.86 75.2201 44.81 74.9901 47.02C74.9101 47.77 75.0701 48.34 75.4501 48.71C76.2001 49.42 77.5801 49.19 79.0301 48.96C80.2901 48.76 81.5901 48.55 82.2201 49.01C82.4501 49.18 82.5801 49.44 82.6301 49.8C82.8501 51.35 82.5401 52.19 82.3101 52.79C81.9601 53.72 81.9501 54.19 83.3201 54.87C83.9201 55.17 84.9301 55.34 86.2201 55.55C88.8001 55.98 92.34 56.57 93.8101 58.62C94.4401 59.51 94.6401 60.59 94.4201 61.91C93.3001 68.5 73.6401 76.88 55.6301 81.07C55.6301 81.2 55.6401 81.32 55.6301 81.45C55.6301 81.57 55.6101 81.69 55.6001 81.81C74.2701 77.49 93.9201 69.02 95.1101 62.03C95.3701 60.53 95.1201 59.24 94.3801 58.2L94.4001 58.19Z" fill="black"/>
<path d="M50.9301 74.2999C53.3001 58.7799 62.7001 49.1099 62.8001 48.9999C62.8801 48.9199 62.8701 48.7999 62.8001 48.7199C62.7201 48.6399 62.6001 48.6399 62.5301 48.7199C62.4201 48.8299 52.9701 58.5499 50.5601 74.1499C50.6901 74.1999 50.8101 74.2399 50.9301 74.2899V74.2999Z" fill="black"/>
<path d="M81.6401 65.3798C81.5601 65.2998 81.4401 65.2998 81.3601 65.3798C76.7901 69.9098 66.7801 74.9998 55.1001 78.8498C55.1501 78.9698 55.2001 79.0898 55.2501 79.2098C66.9801 75.3398 77.0301 70.2198 81.6401 65.6498C81.7201 65.5698 81.7201 65.4498 81.6401 65.3698V65.3798Z" fill="black"/>
<path d="M52.1301 75.0199C56.6901 65.5699 68.3001 53.0999 68.4401 52.9499C68.5101 52.8699 68.5101 52.7499 68.4401 52.6799C68.3601 52.6099 68.2401 52.6099 68.1701 52.6799C67.6001 53.2899 56.3601 65.3599 51.8201 74.7699C51.9301 74.8499 52.0401 74.9299 52.1401 75.0199H52.1301Z" fill="black"/>
<path d="M70.7701 63.5099C70.6801 63.4499 70.5601 63.4699 70.5001 63.5599C68.5501 66.3399 60.8701 72.5499 54.1301 77.2899C54.2201 77.3899 54.3001 77.4799 54.3901 77.5899C61.2101 72.8099 68.8101 66.6399 70.8201 63.7899C70.8801 63.6999 70.8601 63.5799 70.7701 63.5199V63.5099Z" fill="black"/>
<path d="M75.95 73.07C75.87 73.08 75.78 73.04 75.74 72.96C75.69 72.86 75.74 72.75 75.83 72.7C85.98 67.82 90.78 60.96 90.83 60.9C90.89 60.81 91.01 60.79 91.1 60.85C91.19 60.91 91.21 61.03 91.15 61.12C91.1 61.19 86.25 68.12 76 73.05C75.98 73.05 75.96 73.06 75.95 73.07Z" fill="black"/>
<path d="M63.69 73.57C63.61 73.58 63.53 73.54 63.49 73.47C63.44 73.38 63.48 73.26 63.57 73.21C74.16 67.59 81.44 57.93 81.51 57.83C81.57 57.74 81.7 57.73 81.78 57.79C81.87 57.85 81.88 57.98 81.82 58.06C81.75 58.16 74.42 67.89 63.75 73.55C63.73 73.56 63.71 73.57 63.69 73.57Z" fill="black"/>
<path d="M48.6501 90.4001C43.8601 91.1601 39.3501 87.8901 38.5901 83.1101C37.8301 78.3201 41.1001 73.8101 45.8801 73.0501C50.6701 72.2901 55.18 75.5601 55.9401 80.3401C56.7001 85.1301 53.4301 89.6401 48.6501 90.4001Z" fill="black"/>
<path d="M86.59 111.65C86.73 112.58 86.86 113.51 86.99 114.44C87.12 111.94 87.42 109.45 87.99 107.15C87.97 107.16 87.96 107.19 87.94 107.2C87.71 107.35 87.44 107.34 87.22 107.23C86.89 108.59 86.66 110 86.49 111.43C86.53 111.49 86.57 111.55 86.58 111.64L86.59 111.65Z" fill="black"/>
<path d="M126.52 104.39C124.24 102.74 120.53 103.36 117.82 103.79C116.64 103.99 115.62 104.15 115.07 104.07C114.04 103.93 114.04 103.85 114.06 103.15C114.08 102.47 114.12 101.43 113.33 99.8699C113.08 99.3699 112.72 99.0399 112.26 98.8999C111.23 98.5699 109.93 99.2599 108.68 99.9199C107.59 100.5 106.45 101.1 105.84 100.82C105.57 100.69 105.38 100.38 105.26 99.8599C104.72 97.4899 102.88 94.6599 100.13 94.0699C98.08 93.6299 94.74 94.2699 90.5 99.8599C89.6 101.05 88.88 102.41 88.29 103.87C88.34 103.93 88.38 104 88.4 104.09C88.46 104.42 88.55 104.75 88.61 105.08C89.22 103.29 90.02 101.66 91.06 100.28C93.58 96.9599 96.04 95.0799 98.27 94.7199C98.85 94.6299 99.42 94.6399 99.98 94.7599C102.43 95.2899 104.07 97.8499 104.57 100.02C104.74 100.76 105.07 101.25 105.55 101.47C106.49 101.9 107.72 101.25 109.02 100.56C110.15 99.9599 111.31 99.3499 112.06 99.5899C112.33 99.6799 112.54 99.8799 112.71 100.21C113.42 101.61 113.39 102.5 113.37 103.15C113.34 104.14 113.48 104.59 114.99 104.8C115.65 104.89 116.66 104.73 117.95 104.52C120.53 104.09 124.08 103.52 126.12 105C127 105.64 127.54 106.6 127.75 107.93C128.61 113.34 118.08 123.86 105.61 132.84C106.37 132.49 107.16 132.21 107.94 132.03C119.86 123.16 129.33 113.28 128.46 107.82C128.22 106.31 127.58 105.17 126.55 104.43L126.52 104.39Z" fill="black"/>
<path d="M90.5 133.54C87.79 118.1 93.58 105.95 93.65 105.81C93.7 105.71 93.65 105.6 93.56 105.55C93.46 105.5 93.35 105.55 93.3 105.64C93.23 105.78 87.42 117.97 90.1 133.49C90.24 133.5 90.37 133.52 90.5 133.54Z" fill="black"/>
<path d="M116.74 115.28C116.64 115.23 116.53 115.28 116.48 115.37C113.62 121.1 105.84 129.07 96.0901 136.42C96.1701 136.52 96.2501 136.62 96.3301 136.73C106.13 129.34 113.95 121.32 116.83 115.55C116.88 115.45 116.83 115.34 116.74 115.29V115.28Z" fill="black"/>
<path d="M91.87 133.83C93.18 123.42 100.16 107.93 100.25 107.74C100.29 107.64 100.25 107.53 100.15 107.48C100.05 107.43 99.94 107.48 99.89 107.58C99.54 108.34 92.77 123.37 91.48 133.73C91.61 133.76 91.74 133.8 91.86 133.83H91.87Z" fill="black"/>
<path d="M105.84 117C105.74 116.97 105.63 117.03 105.6 117.13C104.65 120.35 99.4799 128.54 94.6699 135.14C94.7799 135.22 94.8899 135.29 94.9899 135.37C99.8699 128.7 105 120.55 105.98 117.24C106.01 117.14 105.95 117.03 105.85 117H105.84Z" fill="black"/>
<path d="M113.74 124.42C113.68 124.42 113.62 124.42 113.57 124.36C113.5 124.28 113.5 124.16 113.57 124.08C121.62 116.2 123.97 108.17 123.99 108.09C124.02 107.99 124.13 107.93 124.23 107.96C124.33 107.99 124.39 108.1 124.36 108.2C124.34 108.28 121.96 116.4 113.83 124.36C113.8 124.39 113.76 124.41 113.72 124.41L113.74 124.42Z" fill="black"/>
<path d="M102.3 128.82C102.24 128.82 102.18 128.82 102.14 128.77C102.06 128.7 102.06 128.57 102.14 128.5C110.38 119.78 114.17 108.3 114.21 108.18C114.24 108.08 114.35 108.02 114.46 108.06C114.56 108.09 114.62 108.2 114.59 108.31C114.55 108.43 110.73 120 102.44 128.78C102.41 128.81 102.37 128.83 102.33 128.84L102.3 128.82Z" fill="black"/>
<path d="M81.49 141.6C78.57 140.67 58.36 133.86 53.28 123.12C53.17 123.41 53.03 123.67 52.84 123.86C58.58 135.06 79.41 141.7 81.49 142.34C81.47 142.09 81.49 141.84 81.49 141.59V141.6Z" fill="black"/>
<path d="M89.04 133.46C89.28 133.46 89.52 133.46 89.76 133.46C89.28 124.34 87.96 115.07 85.97 107.77C85.72 107.77 85.47 107.76 85.22 107.75C87.21 115.04 88.56 124.4 89.05 133.46H89.04Z" fill="black"/>
<path d="M59.54 110.77C60.26 110.99 60.85 110.95 61.28 110.64C61.89 110.2 62.08 109.34 62.16 108.33C61.93 108 61.73 107.64 61.5 107.31C61.46 108.49 61.39 109.68 60.86 110.06C60.62 110.23 60.25 110.24 59.74 110.09C58.49 109.7 56.93 109.59 55.47 109.89C55.51 110.13 55.52 110.36 55.52 110.6C55.64 110.57 55.77 110.54 55.89 110.52C57.14 110.32 58.46 110.45 59.53 110.78L59.54 110.77Z" fill="black"/>
<path d="M86.54 133.95C86.66 133.9 86.79 133.86 86.91 133.82C86.07 127.98 84.89 122.52 83.47 117.94C83.4 118.12 83.32 118.28 83.22 118.45C84.59 122.95 85.72 128.27 86.53 133.96L86.54 133.95Z" fill="black"/>
<path d="M81.6499 139.71C66.8699 134.36 59.1999 123.25 59.1199 123.12C59.0599 123.03 58.9399 123.01 58.8499 123.07C58.7599 123.13 58.7399 123.25 58.7999 123.34C58.8899 123.47 66.6399 134.72 81.5999 140.11C81.6199 139.98 81.6299 139.85 81.6499 139.72V139.71Z" fill="black"/>
<path d="M82 138.23C73.74 131.74 64.21 118.52 64.09 118.36C64.03 118.27 63.91 118.25 63.82 118.32C63.73 118.38 63.71 118.5 63.78 118.59C64.26 119.26 73.65 132.28 81.9 138.66C81.94 138.52 81.97 138.38 82.01 138.23H82Z" fill="black"/>
<path d="M84.66 135.05C82.42 130.15 79.81 125.07 77.68 121.63C77.65 121.63 77.62 121.63 77.58 121.63C77.41 121.59 77.26 121.54 77.12 121.47C79.29 124.92 82.04 130.25 84.35 135.32C84.45 135.22 84.56 135.14 84.66 135.05Z" fill="black"/>
<path d="M83.32 108.96C83.27 109.22 83.25 109.49 83.21 109.73C83.83 111.33 84.42 113.07 84.91 114.97C84.94 115.07 85.03 115.13 85.13 115.11C85.13 115.11 85.14 115.11 85.15 115.11C85.25 115.08 85.32 114.98 85.29 114.87C84.73 112.71 84.06 110.74 83.33 108.96H83.32Z" fill="black"/>
<path d="M81.23 121.25C81.16 121.33 81.07 121.4 80.94 121.42C80.92 121.42 80.9 121.42 80.88 121.42C81.68 123.21 82.41 125.11 83 127.08C83.03 127.18 83.12 127.23 83.22 127.22C83.22 127.22 83.24 127.22 83.25 127.22C83.35 127.19 83.41 127.08 83.38 126.98C82.78 124.99 82.05 123.07 81.24 121.26L81.23 121.25Z" fill="black"/>
<path d="M86.1 149.59C86.01 149.73 85.95 149.82 85.95 149.82L85.93 149.84C85.8 150.05 73.1 171.07 60.44 173.09H60.36C55.16 173.9 51.62 173.12 50.11 170.87C48.72 168.79 49.32 165.8 50.47 163.9C50.86 163.25 50.96 162.67 50.77 162.18C50.4 161.22 49.06 160.83 47.64 160.42C46.42 160.07 45.15 159.7 44.78 159.01C44.65 158.76 44.63 158.47 44.74 158.12C45.21 156.62 45.85 156 46.31 155.55C47.02 154.86 47.24 154.44 46.29 153.24C45.88 152.72 45.03 152.13 43.96 151.38C41.81 149.88 38.86 147.83 38.42 145.35C38.23 144.28 38.51 143.22 39.29 142.11C40.44 140.48 43.14 139.41 46.85 138.82C54.29 137.63 65.78 138.37 76.87 140.32C76.08 139.93 75.3 139.56 74.57 139.38C74.42 139.34 74.32 139.26 74.28 139.16C58.1 136.59 42.17 136.77 38.72 141.7C37.84 142.95 37.51 144.22 37.74 145.47C38.23 148.24 41.32 150.39 43.57 151.96C44.55 152.64 45.4 153.23 45.74 153.67C46.38 154.49 46.33 154.54 45.82 155.03C45.33 155.51 44.58 156.22 44.06 157.9C43.89 158.44 43.92 158.92 44.15 159.34C44.66 160.29 46.07 160.7 47.44 161.1C48.63 161.45 49.86 161.8 50.1 162.43C50.21 162.71 50.13 163.07 49.85 163.52C48.59 165.6 47.94 168.91 49.5 171.25C50.67 173 53.51 174.85 60.45 173.79C60.48 173.79 60.51 173.79 60.54 173.78C73.47 171.72 85.9 151.24 86.52 150.2C86.55 150.16 86.64 150.02 86.77 149.82C86.54 149.75 86.31 149.66 86.09 149.56L86.1 149.59Z" fill="black"/>
<path d="M81.63 143.24C69.57 141.77 58.5 142.1 52.47 144.22C52.37 144.26 52.32 144.37 52.35 144.47C52.39 144.57 52.49 144.63 52.6 144.59C58.6 142.48 69.65 142.16 81.7 143.64C81.67 143.5 81.66 143.38 81.64 143.24H81.63Z" fill="black"/>
<path d="M84.57 148.61C75.76 162.35 62.5 167.29 62.35 167.34C62.25 167.38 62.2 167.49 62.23 167.59C62.26 167.68 62.35 167.73 62.44 167.72C62.45 167.72 62.46 167.72 62.48 167.72C62.63 167.67 75.99 162.7 84.87 148.88C84.77 148.8 84.67 148.71 84.57 148.63V148.61Z" fill="black"/>
<path d="M83.82 147.86C75.88 154.64 59.14 161.28 58.94 161.36C58.84 161.4 58.79 161.51 58.83 161.61C58.86 161.7 58.95 161.74 59.04 161.73C59.05 161.73 59.07 161.73 59.08 161.72C59.88 161.4 76.19 154.93 84.08 148.15C83.99 148.06 83.9 147.96 83.81 147.86H83.82Z" fill="black"/>
<path d="M61.64 150.9C64.57 149.24 74.04 146.94 82.12 145.55C82.07 145.43 82.02 145.31 81.98 145.17C73.82 146.57 64.45 148.85 61.45 150.55C61.36 150.6 61.32 150.72 61.38 150.82C61.44 150.92 61.55 150.94 61.64 150.89V150.9Z" fill="black"/>
<path d="M42.07 144.6C41.99 144.61 41.91 144.58 41.87 144.51C41.82 144.42 41.85 144.3 41.94 144.24C42.01 144.2 49.37 140.02 60.74 139.96C60.85 139.96 60.93 140.05 60.94 140.15C60.94 140.26 60.85 140.34 60.75 140.35C49.48 140.41 42.21 144.54 42.14 144.58C42.12 144.59 42.1 144.6 42.07 144.6Z" fill="black"/>
<path d="M49.17 151.37C49.09 151.38 49.01 151.34 48.97 151.27C48.92 151.18 48.96 151.06 49.05 151.01C49.16 150.95 59.95 145.3 72.02 144.77C72.13 144.77 72.22 144.85 72.22 144.96C72.22 145.07 72.13 145.16 72.03 145.16C60.04 145.69 49.33 151.3 49.23 151.36C49.21 151.37 49.19 151.38 49.17 151.38V151.37Z" fill="black"/>
<path d="M100.73 151.52C99.87 151.29 99.16 150.73 98.43 150.24C103.86 155.62 113.78 166.76 113.61 176.14C113.52 181.4 112.16 184.76 109.68 185.86C107.39 186.88 104.55 185.78 102.87 184.33C102.3 183.83 101.76 183.64 101.22 183.74C100.21 183.95 99.6 185.2 98.96 186.53C98.4 187.68 97.83 188.86 97.09 189.11C96.82 189.2 96.53 189.16 96.2 188.99C94.8 188.28 94.3 187.54 93.94 187.01C93.38 186.19 93 185.91 91.66 186.63C91.07 186.95 90.35 187.68 89.44 188.61C87.6 190.48 85.08 193.05 82.57 193.05C81.48 193.05 80.48 192.6 79.53 191.65C75.07 187.23 78.72 168.52 84.92 152.06C84.86 152.13 84.8 152.2 84.73 152.27C84.59 152.52 84.44 152.76 84.3 153.01C84.1 153.39 83.94 153.77 83.59 154.03C83.53 154.07 83.47 154.09 83.4 154.11C77.55 170.42 74.52 187.68 79.03 192.15C80.11 193.22 81.31 193.76 82.58 193.76C82.82 193.76 83.05 193.74 83.29 193.7C85.84 193.29 88.2 190.89 89.96 189.1C90.8 188.25 91.52 187.51 92.01 187.25C92.93 186.75 92.97 186.82 93.37 187.4C93.76 187.97 94.34 188.82 95.9 189.62C96.4 189.87 96.88 189.93 97.34 189.77C98.37 189.43 99.01 188.1 99.63 186.83C100.17 185.72 100.73 184.57 101.39 184.43C101.69 184.39 102.02 184.51 102.43 184.86C104.27 186.46 107.42 187.65 109.99 186.5C111.91 185.65 114.22 183.15 114.34 176.14C114.49 167.35 106.39 157.37 100.74 151.51L100.73 151.52Z" fill="black"/>
<path d="M87.77 150.07C84.28 161.74 82.74 172.72 83.81 179.04C83.83 179.14 83.93 179.22 84.03 179.2C84.14 179.18 84.21 179.08 84.19 178.98C83.12 172.7 84.66 161.75 88.15 150.12C88.02 150.11 87.89 150.09 87.76 150.07H87.77Z" fill="black"/>
<path d="M94.7101 148.71C94.5901 148.76 94.4601 148.82 94.3201 148.88C105.71 159.75 108.23 173.05 108.26 173.2C108.28 173.3 108.38 173.37 108.48 173.36C108.59 173.34 108.66 173.24 108.64 173.13C108.61 172.98 106.09 159.65 94.7101 148.71Z" fill="black"/>
<path d="M90.11 150.09C89.98 150.11 89.85 150.12 89.72 150.13C89.72 158.4 90.4 168.01 91.57 171.26C91.61 171.36 91.71 171.41 91.82 171.38C91.92 171.34 91.97 171.23 91.94 171.13C90.8 167.97 90.13 158.27 90.12 150.09H90.11Z" fill="black"/>
<path d="M93.03 149.37C98.18 158.5 101.75 175.34 101.79 175.55C101.81 175.65 101.91 175.72 102.01 175.7C102.12 175.68 102.18 175.57 102.16 175.47C101.99 174.65 98.53 158.32 93.4 149.24C93.27 149.29 93.15 149.33 93.02 149.38L93.03 149.37Z" fill="black"/>
<path d="M82.26 189.55C82.17 189.56 82.08 189.51 82.05 189.43C82.02 189.35 79.14 181.4 80.99 170.18C81.01 170.07 81.11 170 81.21 170.02C81.32 170.04 81.39 170.14 81.37 170.24C79.53 181.35 82.38 189.22 82.41 189.3C82.45 189.4 82.4 189.51 82.3 189.55C82.29 189.55 82.28 189.55 82.26 189.55Z" fill="black"/>
<path d="M90.13 183.69C90.04 183.7 89.94 183.65 89.91 183.56C89.87 183.44 86.12 171.85 87.62 159.87C87.63 159.76 87.73 159.69 87.84 159.7C87.95 159.71 88.02 159.81 88.01 159.92C86.51 171.82 90.24 183.33 90.28 183.44C90.31 183.54 90.26 183.65 90.16 183.69C90.16 183.69 90.14 183.69 90.13 183.69Z" fill="black"/>
<path d="M134.45 141.46C136.47 140.1 138.44 137.36 137.99 134.58C137.66 132.51 135.85 129.63 129.11 127.7C118.08 124.54 101.44 134.46 96.78 137.44C96.9 137.65 97 137.87 97.1 138.09C100.5 135.92 110.99 129.65 120.51 128.13C123.49 127.65 126.37 127.65 128.92 128.37C133.97 129.82 136.87 132 137.3 134.68C137.69 137.15 135.9 139.62 134.06 140.86C133.43 141.28 133.1 141.77 133.07 142.3C133.01 143.33 134.06 144.24 135.18 145.21C136.14 146.04 137.14 146.9 137.19 147.69C137.21 147.97 137.1 148.24 136.85 148.52C135.8 149.69 134.96 149.98 134.35 150.19C133.42 150.52 133.04 150.81 133.4 152.3C133.55 152.95 134.08 153.83 134.74 154.96C136.07 157.22 137.89 160.31 137.25 162.75C136.97 163.81 136.27 164.65 135.11 165.33C129.36 168.68 110.46 159.07 95.71 148.01C95.54 148.2 95.36 148.35 95.15 148.48C109.05 158.94 126.02 167.79 133.54 166.59C134.27 166.47 134.92 166.26 135.46 165.94C136.78 165.17 137.61 164.16 137.93 162.93C138.64 160.2 136.73 156.96 135.34 154.6C134.73 153.57 134.21 152.68 134.08 152.14C133.84 151.13 133.91 151.1 134.58 150.87C135.23 150.64 136.2 150.3 137.38 149C137.76 148.58 137.93 148.13 137.9 147.66C137.83 146.58 136.72 145.62 135.65 144.69C134.71 143.88 133.75 143.04 133.79 142.36C133.81 142.06 134.03 141.77 134.47 141.47L134.45 141.46Z" fill="black"/>
<path d="M124.73 132.41C124.58 132.4 111.07 131.39 97.55 139.54C97.58 139.67 97.61 139.81 97.63 139.95C111.07 131.79 124.54 132.79 124.69 132.8C124.8 132.8 124.89 132.73 124.9 132.62C124.91 132.51 124.83 132.42 124.72 132.41H124.73Z" fill="black"/>
<path d="M124.05 157.54C117.64 156.94 107.3 152.53 96.85 146.03C96.79 146.14 96.73 146.26 96.67 146.38C107.16 152.9 117.55 157.33 124.01 157.93C124.03 157.93 124.04 157.93 124.06 157.93C124.15 157.92 124.21 157.85 124.22 157.76C124.23 157.65 124.15 157.56 124.04 157.55L124.05 157.54Z" fill="black"/>
<path d="M118.47 148.03C115.11 148.32 105.53 146.44 97.61 144.33C97.57 144.46 97.53 144.58 97.49 144.7C105.51 146.85 115.04 148.71 118.51 148.42H118.52C118.62 148.4 118.69 148.31 118.68 148.21C118.68 148.1 118.58 148.02 118.47 148.03Z" fill="black"/>
<path d="M125.31 139.26C124.47 139.21 107.89 138.33 97.77 140.92C97.78 141.05 97.79 141.19 97.8 141.32C107.96 138.73 125.08 139.64 125.28 139.65C125.39 139.65 125.48 139.57 125.48 139.47C125.48 139.36 125.4 139.27 125.3 139.26H125.31Z" fill="black"/>
<path d="M133.6 162.31C133.6 162.31 133.6 162.31 133.59 162.31C133.51 162.31 125.08 163.04 114.72 158.35C114.62 158.31 114.58 158.19 114.62 158.09C114.66 157.99 114.78 157.95 114.88 157.99C125.14 162.64 133.47 161.93 133.55 161.92C133.66 161.91 133.75 161.99 133.76 162.1C133.76 162.2 133.7 162.29 133.6 162.31Z" fill="black"/>
<path d="M129.98 153.19C129.98 153.19 129.97 153.19 129.96 153.19C129.84 153.19 117.67 153.82 106.48 149.27C106.38 149.23 106.33 149.12 106.37 149.02C106.41 148.92 106.52 148.87 106.62 148.91C117.72 153.43 129.81 152.81 129.93 152.8C130.04 152.8 130.13 152.88 130.14 152.98C130.14 153.08 130.07 153.17 129.98 153.18V153.19Z" fill="black"/>
<path d="M91.02 150.53C88.54 150.93 85.9 150.26 83.86 148.49C80.2 145.31 79.82 139.75 83 136.09C86.18 132.44 91.74 132.05 95.4 135.23C99.06 138.41 99.44 143.97 96.26 147.63C94.85 149.24 92.99 150.22 91.02 150.53Z" fill="black"/>
<path d="M113.3 35.3199C111.26 35.6499 109.31 33.7199 109.13 33.5399C108.45 32.9399 95.72 21.6199 95.99 12.3099C96.14 7.28991 97.83 5.51991 99.22 4.91991C101.09 4.11991 103.36 4.99991 104.67 6.15991C104.92 6.37991 105.11 6.47991 105.31 6.44991C105.73 6.36991 106.14 5.54991 106.5 4.81991C106.96 3.89991 107.43 2.94991 108.2 2.69991C108.55 2.58991 108.92 2.62991 109.29 2.82991C110.41 3.41991 110.83 4.03991 111.1 4.44991C111.267 4.70325 111.54 4.72991 111.92 4.52991C112.26 4.34991 112.77 3.83991 113.36 3.24991C114.77 1.87991 116.67 -0.0200875 118.71 -8.75428e-05C119.64 -8.75428e-05 120.5 0.409913 121.28 1.19991C124.89 4.86991 121.46 20.1599 116.04 32.8299C115.36 34.2899 114.45 35.1199 113.32 35.3099C113.32 35.3099 113.3 35.3099 113.29 35.3099L113.3 35.3199ZM100.25 5.35991C100 5.39991 99.75 5.46991 99.51 5.56991C97.79 6.30991 96.82 8.64991 96.71 12.3299C96.45 21.3599 109.48 32.8999 109.61 33.0199L109.63 33.0399C109.63 33.0399 111.46 34.8999 113.19 34.6199H113.21C114.09 34.4699 114.83 33.7699 115.4 32.5499C120.6 20.3799 124.14 5.11991 120.78 1.70991C120.13 1.04991 119.45 0.729912 118.71 0.729912C116.97 0.719912 115.18 2.48991 113.88 3.78991C113.22 4.44991 112.7 4.95991 112.27 5.18991C111.29 5.70991 110.95 5.51991 110.52 4.86991C110.27 4.49991 109.93 3.98991 108.97 3.47991C108.7 3.33991 108.53 3.35991 108.42 3.39991C107.93 3.55991 107.51 4.40991 107.13 5.15991C106.65 6.11991 106.2 7.01991 105.43 7.16991C105.03 7.23991 104.61 7.08991 104.18 6.71991C103.21 5.84991 101.65 5.15991 100.23 5.37991L100.25 5.35991Z" fill="black"/>
<path d="M113.37 35.05L113.16 34.89C102.2 26.7 100.06 14.62 100.04 14.5C100.02 14.39 100.09 14.29 100.2 14.28C100.31 14.26 100.4 14.33 100.42 14.44C100.44 14.56 102.53 26.34 113.18 34.43C116.54 24.99 118.19 15.65 117.39 10.57C117.37 10.46 117.45 10.36 117.55 10.35C117.66 10.33 117.76 10.41 117.77 10.51C118.59 15.69 116.89 25.23 113.45 34.81L113.36 35.06L113.37 35.05Z" fill="black"/>
<path d="M113.23 35.01L112.92 34.72C108.08 30.18 104.78 13.6 104.64 12.9C104.62 12.79 104.69 12.69 104.79 12.67C104.88 12.64 105 12.72 105.02 12.82C105.05 12.99 108.29 29.25 112.88 34.13C113.16 27.98 112.78 18.73 111.85 16.06C111.81 15.96 111.87 15.85 111.97 15.81C112.07 15.77 112.18 15.83 112.22 15.93C113.2 18.75 113.58 28.28 113.25 34.59L113.23 35.01Z" fill="black"/>
<path d="M119.53 16.9799C119.53 16.9799 119.49 16.9799 119.47 16.9799C119.36 16.9599 119.29 16.8599 119.31 16.7499C120.7 8.9199 118.76 3.3399 118.74 3.2899C118.7 3.1899 118.76 3.0799 118.86 3.0399C118.96 3.0099 119.07 3.0599 119.11 3.1599C119.13 3.2199 121.11 8.8799 119.7 16.8199C119.69 16.8999 119.62 16.9699 119.54 16.9799H119.53Z" fill="black"/>
<path d="M114.75 24.2299C114.75 24.2299 114.71 24.2299 114.69 24.2299C114.58 24.2199 114.51 24.1199 114.52 24.0099C115.68 15.6099 113.14 7.44986 113.11 7.36986C113.08 7.26986 113.13 7.15987 113.24 7.12987C113.35 7.08987 113.45 7.14987 113.48 7.25987C113.51 7.33987 116.07 15.5899 114.9 24.0699C114.89 24.1599 114.82 24.2199 114.74 24.2399L114.75 24.2299Z" fill="black"/>
<path d="M135.38 7.93992C133.7 6.78992 131.31 7.22992 129.79 8.11992C129.5 8.28992 129.27 8.34992 129.11 8.27992C128.71 8.11992 128.46 7.22992 128.25 6.44992C127.97 5.45992 127.69 4.43992 126.98 4.04992C126.66 3.86992 126.29 3.84992 125.88 3.96992C124.67 4.32992 124.14 4.86992 123.79 5.21992C123.577 5.43992 123.303 5.41326 122.97 5.13992C122.76 4.96992 122.5 4.62992 122.2 4.19992C122.28 4.63992 122.37 5.08992 122.36 5.53992C122.42 5.59992 122.47 5.64992 122.53 5.69992C123.39 6.38992 123.76 6.26992 124.31 5.71992C124.62 5.39992 125.05 4.95992 126.09 4.64992C126.39 4.56992 126.55 4.61992 126.64 4.66992C127.09 4.91992 127.34 5.82992 127.57 6.63992C127.86 7.66992 128.13 8.64992 128.85 8.93992C129.23 9.08992 129.67 9.01992 130.16 8.72992C131.48 7.94992 133.56 7.54992 134.98 8.51992C136.53 9.57992 137.04 12.0599 136.44 15.6799C134.98 24.5999 119.99 33.4499 119.84 33.5299L119.82 33.5499C119.82 33.5499 117.66 35.0399 116 34.4199C115.7 34.3099 115.44 34.0999 115.2 33.8599C115.09 34.0799 114.95 34.2699 114.78 34.4499C115.07 34.7199 115.38 34.9499 115.74 35.0899C116.34 35.3099 116.96 35.3299 117.56 35.2299C118.9 35.0199 120.06 34.2499 120.2 34.1499C120.98 33.6899 135.63 24.9999 137.14 15.7999C137.95 10.8499 136.63 8.78992 135.38 7.92992V7.93992Z" fill="black"/>
<path d="M132.64 16.9398C132.54 16.8998 132.43 16.9498 132.39 17.0498C132.35 17.1598 128.07 28.3298 116.06 34.2398C115.97 33.6398 115.89 33.0498 115.81 32.4598C115.7 32.5898 115.58 32.7198 115.49 32.8698C115.49 32.8698 115.49 32.8698 115.48 32.8798C115.56 33.4398 115.64 33.9998 115.72 34.5598L115.76 34.8198L116 34.7098C128.32 28.7598 132.72 17.2998 132.76 17.1798C132.8 17.0798 132.75 16.9698 132.65 16.9298L132.64 16.9398Z" fill="black"/>
<path d="M128.44 14.49C128.34 14.45 128.23 14.49 128.19 14.6C128.13 14.76 121.85 30.11 116.42 34.02C116.67 32.34 117.01 30.44 117.41 28.51C117.37 28.59 117.34 28.66 117.3 28.74C117.08 29.13 116.93 29.57 116.72 29.96C116.42 31.51 116.17 33.03 115.97 34.4L115.91 34.81L116.26 34.59C121.88 31.05 128.27 15.41 128.54 14.74C128.58 14.64 128.54 14.53 128.43 14.49H128.44Z" fill="black"/>
<path d="M112.64 35.3398C112.64 35.3398 112.6 35.3398 112.58 35.3398C103.68 35.2398 95.62 30.1598 91.04 21.7498C88 16.1698 87.04 12.8998 87.83 10.8198C88.29 9.6098 89.34 8.7698 91.24 8.0898C95.59 6.5398 96.87 9.6798 96.88 9.7098C96.95 9.8898 96.86 10.0998 96.68 10.1698C96.5 10.2398 96.29 10.1498 96.22 9.9698C96.18 9.8698 95.16 7.4498 91.48 8.7598C89.78 9.3698 88.89 10.0598 88.5 11.0698C87.8 12.9098 88.77 16.0998 91.67 21.3998C96.13 29.5798 103.95 34.5198 112.59 34.6198C112.79 34.6198 112.94 34.7798 112.94 34.9798C112.94 35.1598 112.81 35.2998 112.64 35.3298V35.3398Z" fill="black"/>
<path d="M123.43 35.6698C121.48 35.9798 119.57 35.9598 117.76 35.5198C117.57 35.4698 117.45 35.2798 117.5 35.0898C117.55 34.8998 117.74 34.7798 117.93 34.8298C124.76 36.4998 133.27 31.8098 138.67 26.4298C142.39 22.7198 144.37 18.9998 143.82 16.7198C143.42 15.0698 142.7 14.0398 141.67 13.6598C139.71 12.9398 137.21 14.7198 137.18 14.7298C137.02 14.8498 136.8 14.8098 136.68 14.6498C136.56 14.4898 136.6 14.2698 136.76 14.1498C136.88 14.0698 139.6 12.1298 141.91 12.9798C143.18 13.4498 144.05 14.6498 144.51 16.5498C145.12 19.0698 143.07 23.0498 139.17 26.9298C135.04 31.0398 129.12 34.7498 123.43 35.6598V35.6698Z" fill="black"/>
<path d="M115.57 37.25C115.49 37.66 115.32 38.03 115.11 38.43C115.13 39.16 114.81 39.79 114.54 40.46C114.37 40.88 114.19 41.31 113.87 41.6C113.34 52.89 110.13 74.94 94.2699 92.99C94.3399 94.07 94.2199 95.52 93.5499 96.33C93.5799 96.33 93.6099 96.33 93.6299 96.33C93.8399 96.3 94.0399 96.19 94.1999 96.03C114.15 74.74 115.98 47.24 115.96 37.54C115.83 37.44 115.7 37.34 115.57 37.24V37.25Z" fill="black"/>
<path d="M119.88 53.4598L119.76 52.9198C119.74 52.8198 119.74 52.6798 119.76 52.2498C119.96 46.4798 118.61 41.7198 115.77 38.0798C115.37 39.6098 114.38 41.4698 112.98 44.0898C111.85 46.2098 110.44 48.8398 108.87 52.1998L108.38 53.2498L108.2 52.1098C108.13 51.6498 107.98 51.0198 107.82 50.2898C107.04 46.8598 105.76 41.2498 108 37.6298C104.33 38.0398 101.24 39.4098 97.0099 44.3098L96.4899 44.9198L96.3899 44.1198C95.1099 33.6998 100.46 31.3798 100.69 31.2898C100.88 31.2198 101.08 31.2998 101.15 31.4798C101.22 31.6598 101.14 31.8698 100.96 31.9398C100.91 31.9598 96.1599 34.0598 97.0099 43.2298C101.42 38.3198 104.67 37.1498 108.71 36.8398L109.53 36.7798L109.02 37.4198C106.38 40.7098 107.72 46.5998 108.52 50.1198C108.58 50.3998 108.64 50.6698 108.7 50.9098C110.1 47.9998 111.35 45.6598 112.37 43.7398C113.98 40.7398 115.04 38.7598 115.24 37.2098L115.34 36.4198L115.86 37.0298C119.1 40.8298 120.66 45.8698 120.5 52.0298C123.94 48.6198 124.32 41.1098 123.68 38.4498L123.58 38.0298L124.01 38.0098C127.87 37.8298 130.79 40.1698 132.68 44.9798C133.46 42.7798 133.48 39.7398 132.68 37.3998C132.06 35.5698 131 34.2398 129.6 33.5598C129.42 33.4698 129.35 33.2598 129.44 33.0798C129.53 32.8998 129.74 32.8298 129.92 32.9198C131.49 33.6898 132.68 35.1598 133.36 37.1698C134.33 40.0198 134.17 43.6898 132.98 46.0898L132.64 46.7798L132.34 46.0698C132.3 45.9898 132.26 45.8598 132.19 45.6898C131.55 43.9498 129.63 38.7398 124.47 38.7098C125.13 42.2798 124.34 50.0098 120.36 53.0998L119.92 53.4398L119.88 53.4598Z" fill="black"/>
<path d="M109.93 69.8899L109.09 70.0199L109.56 69.3099C109.67 69.1399 121.2 52.1399 141.61 54.8999L142.5 55.0199L141.78 55.5699C128 66.0999 114.92 69.0899 109.93 69.8799V69.8899ZM132.32 55.7399C120.21 57.6699 112.71 66.3999 110.71 68.9999C116.09 68.0299 127.98 64.9499 140.58 55.5399C137.63 55.2199 134.87 55.3299 132.31 55.7399H132.32Z" fill="black"/>
<path d="M109.9 69.7098C109.83 69.7198 109.76 69.6898 109.71 69.6298C109.65 69.5398 109.67 69.4198 109.75 69.3598C118.71 62.9198 136.8 56.0198 136.98 55.9498C137.08 55.9098 137.19 55.9598 137.23 56.0598C137.27 56.1598 137.22 56.2698 137.12 56.3098C136.94 56.3798 118.9 63.2598 109.98 69.6798C109.95 69.6998 109.93 69.7098 109.9 69.7098Z" fill="black"/>
<path d="M96.6601 93.0999C96.6601 93.0999 96.6601 93.0999 96.6501 93.0999L95.8101 93.2299L96.2801 92.5199C96.3901 92.3499 107.92 75.3499 128.33 78.1099L129.22 78.2299L128.5 78.7799C114.73 89.2999 101.65 92.2899 96.6601 93.0899V93.0999ZM119.04 78.9499C106.93 80.8799 99.4301 89.6099 97.4301 92.2099C102.81 91.2399 114.7 88.1599 127.31 78.7499C124.36 78.4299 121.6 78.5399 119.04 78.9499Z" fill="black"/>
<path d="M96.62 92.9298C96.55 92.9398 96.48 92.9098 96.43 92.8498C96.37 92.7598 96.39 92.6398 96.47 92.5798C105.43 86.1398 123.52 79.2398 123.7 79.1698C123.81 79.1298 123.91 79.1798 123.95 79.2798C123.99 79.3798 123.94 79.4898 123.84 79.5298C123.66 79.5998 105.62 86.4798 96.7 92.8998C96.67 92.9198 96.65 92.9298 96.62 92.9298Z" fill="black"/>
<path d="M98.6801 88.81L98.5601 87.97C97.8501 82.97 96.8301 69.58 102.83 53.31L103.14 52.46L103.52 53.28C112.19 71.97 99.3501 88 99.2201 88.16L98.6801 88.82V88.81ZM103.22 54.43C97.9601 69.25 98.5201 81.52 99.1801 86.95C101.47 83.71 109.97 70.11 103.22 54.43Z" fill="black"/>
<path d="M98.9601 88.1099C98.9601 88.1099 98.9001 88.1099 98.8701 88.1099C98.7701 88.0799 98.7101 87.9599 98.7501 87.8599C102.24 77.4399 103.49 58.1799 103.51 57.9799C103.51 57.8699 103.61 57.7899 103.72 57.7999C103.83 57.7999 103.91 57.8999 103.9 58.0099C103.89 58.1999 102.64 77.5199 99.1301 87.9899C99.1101 88.0599 99.0501 88.1099 98.9801 88.1199L98.9601 88.1099Z" fill="black"/>
<path d="M45.7101 77.12C45.7101 77.74 45.2001 78.25 44.5801 78.25C43.9601 78.25 43.4501 77.74 43.4501 77.12C43.4501 76.5 43.9601 75.99 44.5801 75.99C45.2001 75.99 45.7101 76.5 45.7101 77.12Z" fill="#FFFAFF"/>
<path d="M42.3101 79.38C42.3101 80 41.8 80.51 41.18 80.51C40.56 80.51 40.05 80 40.05 79.38C40.05 78.76 40.56 78.25 41.18 78.25C41.8 78.25 42.3101 78.76 42.3101 79.38Z" fill="#FFFAFF"/>
<path d="M43.65 84.6898C43.65 85.3098 43.14 85.8198 42.52 85.8198C41.9 85.8198 41.39 85.3098 41.39 84.6898C41.39 84.0698 41.9 83.5598 42.52 83.5598C43.14 83.5598 43.65 84.0698 43.65 84.6898Z" fill="#FFFAFF"/>
<path d="M47.4901 87.5599C47.4901 88.1799 46.9801 88.6899 46.3601 88.6899C45.7401 88.6899 45.2301 88.1799 45.2301 87.5599C45.2301 86.9399 45.7401 86.4299 46.3601 86.4299C46.9801 86.4299 47.4901 86.9399 47.4901 87.5599Z" fill="#FFFAFF"/>
<path d="M46.8401 83.0699C46.8401 83.6899 46.3301 84.1999 45.7101 84.1999C45.0901 84.1999 44.5801 83.6899 44.5801 83.0699C44.5801 82.4499 45.0901 81.9399 45.7101 81.9399C46.3301 81.9399 46.8401 82.4499 46.8401 83.0699Z" fill="#FFFAFF"/>
<path d="M49.67 79.38C49.67 80 49.16 80.51 48.54 80.51C47.92 80.51 47.41 80 47.41 79.38C47.41 78.76 47.92 78.25 48.54 78.25C49.16 78.25 49.67 78.76 49.67 79.38Z" fill="#FFFAFF"/>
<path d="M51.9601 85.2098C51.9601 85.8298 51.4501 86.3398 50.8301 86.3398C50.2101 86.3398 49.7001 85.8298 49.7001 85.2098C49.7001 84.5898 50.2101 84.0798 50.8301 84.0798C51.4501 84.0798 51.9601 84.5898 51.9601 85.2098Z" fill="#FFFAFF"/>
<path d="M53.4901 81.09C53.4901 81.71 52.9801 82.22 52.3601 82.22C51.7401 82.22 51.2301 81.71 51.2301 81.09C51.2301 80.47 51.7401 79.96 52.3601 79.96C52.9801 79.96 53.4901 80.47 53.4901 81.09Z" fill="#FFFAFF"/>
<path d="M50.25 75.7999C50.25 76.4199 49.74 76.9299 49.12 76.9299C48.5 76.9299 47.99 76.4199 47.99 75.7999C47.99 75.1799 48.5 74.6699 49.12 74.6699C49.74 74.6699 50.25 75.1799 50.25 75.7999Z" fill="#FFFAFF"/>
<path d="M88.3301 137.79C88.3301 138.41 87.8201 138.92 87.2001 138.92C86.5801 138.92 86.0701 138.41 86.0701 137.79C86.0701 137.17 86.5801 136.66 87.2001 136.66C87.8201 136.66 88.3301 137.17 88.3301 137.79Z" fill="#FFFAFF"/>
<path d="M83.8 141.18C84.4241 141.18 84.93 140.674 84.93 140.05C84.93 139.426 84.4241 138.92 83.8 138.92C83.176 138.92 82.67 139.426 82.67 140.05C82.67 140.674 83.176 141.18 83.8 141.18Z" fill="#FFFAFF"/>
<path d="M86.27 145.36C86.27 145.98 85.76 146.49 85.14 146.49C84.52 146.49 84.01 145.98 84.01 145.36C84.01 144.74 84.52 144.23 85.14 144.23C85.76 144.23 86.27 144.74 86.27 145.36Z" fill="#FFFAFF"/>
<path d="M90.1101 148.23C90.1101 148.85 89.6001 149.36 88.9801 149.36C88.3601 149.36 87.8501 148.85 87.8501 148.23C87.8501 147.61 88.3601 147.1 88.9801 147.1C89.6001 147.1 90.1101 147.61 90.1101 148.23Z" fill="#FFFAFF"/>
<path d="M89.4601 143.74C89.4601 144.36 88.9501 144.87 88.3301 144.87C87.7101 144.87 87.2001 144.36 87.2001 143.74C87.2001 143.12 87.7101 142.61 88.3301 142.61C88.9501 142.61 89.4601 143.12 89.4601 143.74Z" fill="#FFFAFF"/>
<path d="M92.28 140.05C92.28 140.67 91.77 141.18 91.15 141.18C90.53 141.18 90.02 140.67 90.02 140.05C90.02 139.43 90.53 138.92 91.15 138.92C91.77 138.92 92.28 139.43 92.28 140.05Z" fill="#FFFAFF"/>
<path d="M94.5801 145.88C94.5801 146.5 94.0701 147.01 93.4501 147.01C92.8301 147.01 92.3201 146.5 92.3201 145.88C92.3201 145.26 92.8301 144.75 93.4501 144.75C94.0701 144.75 94.5801 145.26 94.5801 145.88Z" fill="#FFFAFF"/>
<path d="M96.1001 141.76C96.1001 142.38 95.5901 142.89 94.9701 142.89C94.3501 142.89 93.8401 142.38 93.8401 141.76C93.8401 141.14 94.3501 140.63 94.9701 140.63C95.5901 140.63 96.1001 141.14 96.1001 141.76Z" fill="#FFFAFF"/>
<path d="M92.8701 136.47C92.8701 137.09 92.3601 137.6 91.7401 137.6C91.1201 137.6 90.6101 137.09 90.6101 136.47C90.6101 135.85 91.1201 135.34 91.7401 135.34C92.3601 135.34 92.8701 135.85 92.8701 136.47Z" fill="#FFFAFF"/>
</g>
<defs>
<clipPath id="clip0_1_789">
<rect width="144.61" height="193.77" fill="white"/>
</clipPath>
</defs>
</svg>
