<svg width="28" height="39" viewBox="0 0 28 39" fill="none" xmlns="http://www.w3.org/2000/svg">
<g clip-path="url(#clip0_1_964)">
<path d="M13.482 10.3005C13.9695 8.48147 14.5981 6.78135 15.3966 5.1455C16.0797 3.74748 17.0097 2.54229 18.1065 1.45279C19.633 -0.0641408 21.384 -0.375884 23.3595 0.440433C24.6487 0.973931 25.6364 1.8481 26.3708 3.02758C27.4933 4.83376 27.9743 6.82634 28.0032 8.93141C28.0513 12.5116 27.288 15.9633 26.2554 19.3635C25.2259 22.7574 23.8469 26.0034 22.33 29.214C20.7682 32.5146 18.9018 35.6127 16.8012 38.5823C16.4068 39.1415 16.1149 39.1544 15.7622 38.5759C15.5633 38.2481 15.3132 37.9781 15.0599 37.7017C14.659 37.2647 14.2421 36.834 13.8861 36.3584C10.5669 31.9136 7.40162 27.3596 4.82002 22.4392C2.80284 18.5954 1.25388 14.5621 0.304614 10.3166C0.00957305 8.99569 -0.121912 7.65551 0.141059 6.3057C0.55155 4.21991 1.7734 3.15292 3.89321 3.06293C5.91039 2.97937 7.61649 3.75391 9.11094 5.04909C10.5893 6.33141 11.7374 7.89655 12.8182 9.51633C12.9849 9.76701 13.0747 10.0916 13.4788 10.3005H13.482ZM15.8873 36.9786C16.2528 36.8597 16.3811 36.5512 16.5671 36.3102C17.6575 34.8832 18.4881 33.3116 19.2097 31.6726C21.7368 25.9294 24.0041 20.1124 25.1233 13.8936C25.7326 10.5158 25.5402 7.23771 24.5396 3.96602C24.0842 2.47801 22.593 2.20483 21.5443 2.81225C20.8035 3.23969 20.1397 3.74426 19.5945 4.40632C18.5105 5.72399 17.6767 7.17986 17.1187 8.79964C16.503 10.5898 16.2112 12.4377 15.9546 14.3017C15.8424 15.1052 15.9065 15.8251 16.1951 16.5836C16.9167 18.4765 17.2213 20.453 17.2053 22.4778C17.1989 23.1687 17.1797 23.8661 16.859 24.4993C16.4966 25.2192 15.8712 25.3477 15.2362 24.8528C14.5692 24.3354 14.1876 23.6315 13.9118 22.8474C12.8631 19.8713 12.4815 16.8214 12.8599 13.6879C12.9208 13.1801 12.8406 12.7848 12.5424 12.3766C10.9068 10.1334 8.9538 8.20187 6.81796 6.44711C6.50688 6.19321 6.14129 5.99074 5.77249 5.82684C4.83926 5.40904 4.23635 5.62758 3.73606 6.5146C3.33199 7.23129 3.30633 8.01225 3.35123 8.79964C3.46668 10.7858 3.92207 12.7045 4.63722 14.5524C7.00717 20.6941 9.5567 26.749 13.1421 32.3089C13.6328 33.0706 14.024 33.8966 14.4794 34.6807C14.9316 35.4585 15.326 36.2748 15.8873 36.9786ZM23.0709 1.65527C22.4006 1.03821 21.7496 1.03499 21.0697 1.25996C20.1397 1.56849 19.463 2.20483 18.8986 2.97937C16.7082 5.9811 15.573 9.40706 14.8995 13.0162C14.845 13.3055 14.8995 13.5561 15.2234 13.7618C15.294 13.3215 15.3581 12.923 15.419 12.5245C15.8776 9.57739 16.7179 6.78456 18.6003 4.39668C19.7292 2.96651 20.9959 1.77418 23.0709 1.65205V1.65527ZM25.2356 19.566C25.7198 18.589 25.9571 17.522 26.2265 16.4647C26.8583 13.9964 27.2591 11.4928 27.2239 8.94105C27.195 7.03846 26.7845 5.22263 25.6909 3.6125C26.1495 4.62486 26.5247 5.66614 26.7043 6.76528C27.1052 9.18209 26.8519 11.5732 26.4061 13.9579C26.0565 15.8283 25.707 17.6988 25.2356 19.566ZM17.5581 3.39074C17.2149 3.57714 17.0418 3.87603 16.8558 4.16206C16.1759 5.21942 15.6788 6.36676 15.2042 7.52375C14.752 8.62609 14.4313 9.77022 14.1362 10.9208C14.0625 11.21 13.8797 11.5603 14.3736 11.901C14.8899 8.79643 16.0316 6.01967 17.5549 3.39074H17.5581ZM8.27071 6.4921C7.56518 5.57937 6.63837 4.91732 5.58969 4.43846C4.24277 3.82461 2.77718 4.86268 2.81567 6.3989C2.88622 6.31855 2.95677 6.25749 3.00488 6.18357C3.98942 4.71485 5.0413 4.46095 6.56461 5.32226C7.1611 5.65972 7.6678 6.12251 8.26751 6.48889L8.27071 6.4921ZM14.5467 21.8896C14.5371 20.3309 14.5948 18.7786 14.7841 17.236C14.8322 16.8471 14.736 16.5289 14.3543 16.1079C14.2453 18.1584 13.8123 20.0385 14.5467 21.8896ZM15.6018 19.2832C15.1208 20.2216 15.3357 22.6642 16.0091 23.5351C16.4164 22.0246 15.977 20.6748 15.6018 19.2832ZM2.4148 12.5052C2.02675 10.3969 1.7734 8.29507 1.82471 6.16429C1.42705 8.34006 1.80227 10.4451 2.4148 12.5052ZM13.6616 14.4078C13.5205 14.7967 13.5333 15.057 13.6263 15.3623C13.7354 15.0763 13.761 14.8288 13.6616 14.4078ZM4.06959 17.8563C3.94131 18.1423 4.17542 18.2644 4.24277 18.5344C4.34539 18.2033 4.14976 18.0684 4.06959 17.8563Z" fill="black"/>
</g>
<defs>
<clipPath id="clip0_1_964">
<rect width="28" height="39" fill="white"/>
</clipPath>
</defs>
</svg>
